<svg width="20" height="22" viewBox="0 0 20 22" fill="none" xmlns="http://www.w3.org/2000/svg">
<path fill-rule="evenodd" clip-rule="evenodd" d="M0.283691 2C0.283691 1.033 1.06669 0.25 2.03369 0.25H16.0337C17.0007 0.25 17.7837 1.034 17.7837 2V7.199C17.7837 7.39791 17.7047 7.58868 17.564 7.72933C17.4234 7.86998 17.2326 7.949 17.0337 7.949C16.8348 7.949 16.644 7.86998 16.5034 7.72933C16.3627 7.58868 16.2837 7.39791 16.2837 7.199V2C16.2837 1.9337 16.2574 1.87011 16.2105 1.82322C16.1636 1.77634 16.1 1.75 16.0337 1.75H2.03369C1.96739 1.75 1.9038 1.77634 1.85691 1.82322C1.81003 1.87011 1.78369 1.9337 1.78369 2V20C1.78369 20.138 1.89569 20.25 2.03369 20.25H7.03369C7.2326 20.25 7.42337 20.329 7.56402 20.4697C7.70467 20.6103 7.78369 20.8011 7.78369 21C7.78369 21.1989 7.70467 21.3897 7.56402 21.5303C7.42337 21.671 7.2326 21.75 7.03369 21.75H2.03369C1.56956 21.75 1.12444 21.5656 0.796255 21.2374C0.468066 20.9093 0.283691 20.4641 0.283691 20V2Z" fill="#99A2AC"/>
<path fill-rule="evenodd" clip-rule="evenodd" d="M4.28369 6C4.28369 5.80109 4.36271 5.61032 4.50336 5.46967C4.64401 5.32902 4.83478 5.25 5.03369 5.25H11.5337C11.7326 5.25 11.9234 5.32902 12.064 5.46967C12.2047 5.61032 12.2837 5.80109 12.2837 6C12.2837 6.19891 12.2047 6.38968 12.064 6.53033C11.9234 6.67098 11.7326 6.75 11.5337 6.75H5.03369C4.83478 6.75 4.64401 6.67098 4.50336 6.53033C4.36271 6.38968 4.28369 6.19891 4.28369 6ZM4.28369 9.5C4.28369 9.30109 4.36271 9.11032 4.50336 8.96967C4.64401 8.82902 4.83478 8.75 5.03369 8.75H7.53369C7.7326 8.75 7.92337 8.82902 8.06402 8.96967C8.20467 9.11032 8.28369 9.30109 8.28369 9.5C8.28369 9.69891 8.20467 9.88968 8.06402 10.0303C7.92337 10.171 7.7326 10.25 7.53369 10.25H5.03369C4.83478 10.25 4.64401 10.171 4.50336 10.0303C4.36271 9.88968 4.28369 9.69891 4.28369 9.5ZM18.2837 16C18.2837 14.8728 17.8359 13.7918 17.0389 12.9948C16.2419 12.1978 15.1609 11.75 14.0337 11.75C12.9065 11.75 11.8255 12.1978 11.0285 12.9948C10.2315 13.7918 9.78369 14.8728 9.78369 16C9.78369 17.1272 10.2315 18.2082 11.0285 19.0052C11.8255 19.8022 12.9065 20.25 14.0337 20.25C15.1609 20.25 16.2419 19.8022 17.0389 19.0052C17.8359 18.2082 18.2837 17.1272 18.2837 16ZM14.0337 10.25C14.7888 10.25 15.5365 10.3987 16.2341 10.6877C16.9317 10.9767 17.5656 11.4002 18.0996 11.9341C18.6335 12.4681 19.057 13.1019 19.346 13.7996C19.635 14.4972 19.7837 15.2449 19.7837 16C19.7837 16.7551 19.635 17.5028 19.346 18.2004C19.057 18.8981 18.6335 19.5319 18.0996 20.0659C17.5656 20.5998 16.9317 21.0233 16.2341 21.3123C15.5365 21.6013 14.7888 21.75 14.0337 21.75C12.5087 21.75 11.0462 21.1442 9.96783 20.0659C8.88949 18.9875 8.28369 17.525 8.28369 16C8.28369 14.475 8.88949 13.0125 9.96783 11.9341C11.0462 10.8558 12.5087 10.25 14.0337 10.25Z" fill="#99A2AC"/>
<path fill-rule="evenodd" clip-rule="evenodd" d="M14.0337 16.25C14.2326 16.25 14.4234 16.329 14.564 16.4697C14.7047 16.6103 14.7837 16.8011 14.7837 17V18.5C14.7837 18.6989 14.7047 18.8897 14.564 19.0303C14.4234 19.171 14.2326 19.25 14.0337 19.25C13.8348 19.25 13.644 19.171 13.5034 19.0303C13.3627 18.8897 13.2837 18.6989 13.2837 18.5V17C13.2837 16.8011 13.3627 16.6103 13.5034 16.4697C13.644 16.329 13.8348 16.25 14.0337 16.25Z" fill="#99A2AC"/>
</svg>
