<svg width="20" height="20" viewBox="0 0 20 20" fill="none" xmlns="http://www.w3.org/2000/svg">
<path d="M9.6341 0C12.2849 0 14.6847 1.07503 16.4216 2.81184C18.1596 4.54862 19.2335 6.94978 19.2335 9.60041C19.2335 12.251 18.1597 14.651 16.4216 16.388C14.6849 18.1259 12.2851 19.1998 9.6341 19.1998C6.98313 19.1998 4.5821 18.126 2.84553 16.388C1.10875 14.6512 0.0336914 12.2514 0.0336914 9.60041C0.0336914 6.94944 1.10872 4.54841 2.84553 2.81184C4.58234 1.07527 6.98347 0 9.6341 0ZM15.6421 3.6084C14.0497 2.016 12.0712 1.1084 9.64209 1.1084C7.2114 1.1084 5.23466 2.01596 3.64209 3.6084C2.04969 5.2008 1.14209 7.17788 1.14209 9.6084C1.14209 12.0378 2.04966 14.0162 3.64209 15.6084C5.23452 17.2006 7.21158 18.1084 9.64209 18.1084C12.0715 18.1084 14.0499 17.2008 15.6421 15.6084C17.2345 14.016 18.1421 12.0296 18.1421 9.60041C18.1421 7.16972 17.2345 5.20097 15.6421 3.6084ZM10.3455 4.29898C10.4568 4.1084 10.7007 4.04331 10.8925 4.1534C11.0831 4.2647 11.1482 4.50857 11.0369 4.69916L9.64209 7.1084L8.50078 9.09288H11.4583C11.6797 9.09288 11.8585 9.27167 11.8585 9.49306C11.8585 9.57944 11.8313 9.65886 11.7851 9.72395L8.79692 14.9001C8.68804 15.0906 8.44416 15.1557 8.25343 15.0469C8.06164 14.9368 7.99655 14.6929 8.10544 14.5023L10.767 9.89326H7.80838C7.74088 9.89206 7.67218 9.87545 7.6083 9.83876C7.41772 9.72867 7.35263 9.48359 7.46272 9.29299L10.3455 4.29898Z" fill="#AEAEAE"/>
</svg>
