<svg width="20" height="20" viewBox="0 0 20 20" fill="none" xmlns="http://www.w3.org/2000/svg">
<path d="M9.6544 5.63672C8.60324 5.63768 7.59573 6.05592 6.8532 6.7996C6.11047 7.54331 5.69375 8.55161 5.69434 9.60257C5.69491 10.6535 6.11296 11.6612 6.85648 12.404C7.59999 13.1469 8.60789 13.564 9.65885 13.5638C10.7098 13.5634 11.7177 13.1458 12.4608 12.4025C13.2038 11.6591 13.6212 10.6512 13.6212 9.60027C13.6193 8.54911 13.2007 7.5414 12.4572 6.79847C11.7135 6.05555 10.7055 5.6377 9.6544 5.63672ZM9.6544 12.5385C8.87626 12.5377 8.13049 12.2279 7.58079 11.6773C7.03109 11.1269 6.72252 10.3805 6.72286 9.60257C6.72324 8.82462 7.03243 8.07866 7.5825 7.52837C8.13255 6.97833 8.87856 6.66912 9.6565 6.66872C10.4346 6.66853 11.1808 6.97715 11.7314 7.52685C12.2819 8.07655 12.5916 8.82232 12.5926 9.60027C12.5916 10.3789 12.2817 11.1255 11.7308 11.6758C11.1798 12.226 10.4329 12.5352 9.65435 12.5352L9.6544 12.5385Z" fill="#99A2AC"/>
<path d="M18.7195 7.5429H16.5904C16.4467 7.05367 16.2514 6.58127 16.0074 6.13375L17.5195 4.6286C17.72 4.42789 17.72 4.10245 17.5195 3.90173L15.3321 1.71429C15.1314 1.51378 14.8059 1.51378 14.6052 1.71429L13.1001 3.22292C12.6524 2.98032 12.18 2.78593 11.6909 2.64339V0.514288C11.6909 0.230166 11.4607 0 11.1766 0H8.0909C7.80678 0 7.57662 0.230166 7.57662 0.514288V2.65025C7.09103 2.7947 6.6221 2.99005 6.17781 3.23321L4.66232 1.71425C4.45856 1.52101 4.13922 1.52101 3.93547 1.71425L1.74803 3.90169C1.54752 4.10239 1.54752 4.42783 1.74803 4.62855L3.27022 6.15074C3.03489 6.59405 2.84644 7.06049 2.70808 7.54285H0.547978C0.263857 7.54285 0.0336914 7.77301 0.0336914 8.05714V11.1429C0.0336914 11.427 0.263857 11.6572 0.547978 11.6572H2.71474C2.85786 12.1328 3.04975 12.5924 3.28737 13.0286L1.74793 14.5715C1.54742 14.7722 1.54742 15.0976 1.74793 15.2983L3.93537 17.4858C4.13607 17.6863 4.46151 17.6863 4.66223 17.4858L6.20509 15.9463C6.64131 16.1838 7.10088 16.3757 7.57652 16.5189V18.6857C7.57652 18.9698 7.80668 19.2 8.09081 19.2H11.1765C11.4606 19.2 11.6908 18.9698 11.6908 18.6857V16.5291C12.1724 16.3875 12.6379 16.1956 13.0795 15.9566L14.6051 17.4857C14.8058 17.6862 15.1312 17.6862 15.332 17.4857L17.5194 15.2983C17.7199 15.0976 17.7199 14.7721 17.5194 14.5714L16.0073 13.0594C16.2469 12.6134 16.4388 12.1433 16.58 11.6571H18.7194C19.0035 11.6571 19.2337 11.4269 19.2337 11.1428V8.05709C19.2337 7.77296 19.0035 7.5428 18.7194 7.5428L18.7195 7.5429ZM18.2052 10.6286H16.1892C15.9512 10.6284 15.7442 10.7914 15.6887 11.023C15.532 11.6746 15.2729 12.2972 14.9207 12.8675C14.7946 13.07 14.8244 13.3327 14.9926 13.5018L16.4224 14.9315L14.9687 16.3887L13.532 14.952C13.3636 14.7827 13.1009 14.7515 12.8978 14.8766C12.3299 15.2256 11.7092 15.4803 11.06 15.6308C10.8333 15.6834 10.6701 15.8817 10.6623 16.1143V18.1715H8.60513V16.1143C8.60532 15.8763 8.44231 15.6693 8.2108 15.6138C7.56505 15.4607 6.94805 15.2049 6.38342 14.8559C6.1808 14.73 5.9183 14.7599 5.74918 14.9281L4.29874 16.3886L2.84502 14.9349L4.29546 13.4845C4.46364 13.3153 4.4933 13.0528 4.3674 12.8502C4.01823 12.2858 3.76226 11.6688 3.60974 11.0228C3.55502 10.7952 3.35355 10.6329 3.11935 10.6285H1.0622V8.57136H3.11935C3.35832 8.57117 3.56572 8.40644 3.61987 8.17359C3.77121 7.52461 4.02587 6.90413 4.37426 6.33587C4.49939 6.13268 4.46801 5.86998 4.29868 5.70163L2.84497 4.26495L4.29868 2.81123L5.72845 4.241C5.89758 4.40917 6.16028 4.43902 6.36269 4.31294C6.93188 3.9586 7.55486 3.69917 8.20727 3.54494C8.44011 3.49079 8.60484 3.28339 8.60503 3.04441V1.0284H10.6622V3.03755C10.6624 3.27652 10.8271 3.48392 11.06 3.53808C11.7158 3.69019 12.3422 3.94848 12.9147 4.3028C13.1173 4.42869 13.38 4.39885 13.5491 4.23067L14.9685 2.81123L16.4223 4.26495L15.0028 5.68439C14.8346 5.85352 14.8048 6.11622 14.9307 6.31883C15.285 6.8913 15.5433 7.51771 15.6954 8.17355C15.7496 8.40639 15.9569 8.57113 16.1959 8.57132H18.2051L18.2052 10.6286Z" fill="#99A2AC"/>
</svg>
