<svg width="20" height="22" viewBox="0 0 20 22" fill="none" xmlns="http://www.w3.org/2000/svg">
<path d="M9.63369 0.199219C4.34025 0.199219 0.0336914 4.37856 0.0336914 9.51563V14.5672C0.0336914 15.5946 0.895003 16.4305 1.95369 16.4305H2.70377C2.96796 17.1533 3.67934 17.6727 4.51369 17.6727C5.57238 17.6727 6.43369 16.8368 6.43369 15.8094V10.7578C6.43369 9.7304 5.57238 8.89453 4.51369 8.89453C3.67934 8.89453 2.96796 9.41385 2.70377 10.1367H1.95369C1.72931 10.1367 1.51401 10.1746 1.31369 10.2435V9.51563C1.31369 5.0635 5.04604 1.44141 9.63369 1.44141C14.2213 1.44141 17.9537 5.0635 17.9537 9.51563V10.2435C17.7482 10.1728 17.5317 10.1366 17.3137 10.1367H16.5636C16.2994 9.41385 15.588 8.89453 14.7537 8.89453C13.695 8.89453 12.8337 9.7304 12.8337 10.7578V15.8094C12.8337 16.8368 13.695 17.6727 14.7537 17.6727C14.9474 17.6727 15.1345 17.6444 15.311 17.5924C15.0716 18.3568 14.3386 18.9148 13.4737 18.9148H11.4436C11.1794 18.192 10.468 17.6727 9.63369 17.6727C8.575 17.6727 7.71369 18.5085 7.71369 19.5359C7.71369 20.5634 8.575 21.3992 9.63369 21.3992C10.468 21.3992 11.1794 20.8799 11.4436 20.157H13.4737C15.2382 20.157 16.6737 18.7639 16.6737 17.0516V16.4305H17.3137C18.3724 16.4305 19.2337 15.5946 19.2337 14.5672V9.51563C19.2337 4.37856 14.9271 0.199219 9.63369 0.199219ZM3.87369 10.7578C3.87369 10.4153 4.1608 10.1367 4.51369 10.1367C4.86659 10.1367 5.15369 10.4153 5.15369 10.7578V15.8094C5.15369 16.1518 4.86659 16.4305 4.51369 16.4305C4.1608 16.4305 3.87369 16.1518 3.87369 15.8094V10.7578ZM1.95369 11.3789H2.59369V15.1883H1.95369C1.6008 15.1883 1.31369 14.9097 1.31369 14.5672V12C1.31369 11.6575 1.6008 11.3789 1.95369 11.3789ZM9.63369 20.157C9.2808 20.157 8.99369 19.8784 8.99369 19.5359C8.99369 19.1935 9.2808 18.9148 9.63369 18.9148C9.98659 18.9148 10.2737 19.1935 10.2737 19.5359C10.2737 19.8784 9.98659 20.157 9.63369 20.157ZM15.3937 15.8094C15.3937 16.1518 15.1066 16.4305 14.7537 16.4305C14.4008 16.4305 14.1137 16.1518 14.1137 15.8094V10.7578C14.1137 10.4153 14.4008 10.1367 14.7537 10.1367C15.1066 10.1367 15.3937 10.4153 15.3937 10.7578V15.8094ZM17.9537 14.5672C17.9537 14.9097 17.6666 15.1883 17.3137 15.1883H16.6737V11.3789H17.3137C17.6666 11.3789 17.9537 11.6575 17.9537 12V14.5672Z" fill="#99A2AC"/>
</svg>
