<svg width="20" height="21" viewBox="0 0 20 21" fill="none" xmlns="http://www.w3.org/2000/svg">
<path d="M10.0868 0C6.91075 0 4.32682 2.48395 4.32682 5.53711C4.32682 8.59027 6.91075 11.0742 10.0868 11.0742C13.2629 11.0742 15.8468 8.59027 15.8468 5.53711C15.8468 2.48395 13.2629 0 10.0868 0ZM10.0868 9.84375C7.61655 9.84375 5.60682 7.91179 5.60682 5.53711C5.60682 3.16243 7.61655 1.23047 10.0868 1.23047C12.5571 1.23047 14.5668 3.16243 14.5668 5.53711C14.5668 7.91179 12.5571 9.84375 10.0868 9.84375ZM17.2534 14.6916C15.6764 13.1524 13.5859 12.3047 11.3668 12.3047H8.80682C6.58781 12.3047 4.49723 13.1524 2.92027 14.6916C1.35103 16.2233 0.486816 18.2451 0.486816 20.3848C0.486816 20.7245 0.773366 21 1.12682 21H19.0468C19.4003 21 19.6868 20.7245 19.6868 20.3848C19.6868 18.2451 18.8226 16.2233 17.2534 14.6916ZM1.79498 19.7695C2.11562 16.2797 5.13795 13.5352 8.80682 13.5352H11.3668C15.0357 13.5352 18.058 16.2797 18.3787 19.7695H1.79498Z" fill="#F4F6F8"/>
</svg>
