<svg width="16" height="12" viewBox="0 0 16 12" fill="none" xmlns="http://www.w3.org/2000/svg">
<path fill-rule="evenodd" clip-rule="evenodd" d="M2.17779 6.0013C2.56289 6.5324 3.35214 7.53314 4.39143 8.40444C5.46903 9.30787 6.73085 10.0013 8.03364 10.0013C9.33643 10.0013 10.5982 9.30787 11.6758 8.40444C12.7151 7.53314 13.5044 6.5324 13.8895 6.0013C13.5044 5.4702 12.7151 4.46946 11.6758 3.59816C10.5982 2.69474 9.33643 2.0013 8.03364 2.0013C6.73085 2.0013 5.46903 2.69474 4.39143 3.59816C3.35214 4.46946 2.56289 5.4702 2.17779 6.0013ZM3.53482 2.5764C4.7093 1.59175 6.27116 0.667969 8.03364 0.667969C9.79612 0.667969 11.358 1.59175 12.5325 2.5764C13.7183 3.57059 14.5958 4.6994 15.0012 5.2633C15.3201 5.70688 15.3201 6.29572 15.0012 6.7393C14.5958 7.30321 13.7183 8.43201 12.5325 9.4262C11.358 10.4108 9.79612 11.3346 8.03364 11.3346C6.27116 11.3346 4.7093 10.4108 3.53482 9.4262C2.34895 8.43201 1.47151 7.30321 1.06609 6.7393C0.747177 6.29572 0.747176 5.70688 1.06609 5.2633C1.47151 4.6994 2.34895 3.57059 3.53482 2.5764Z" fill="#99A2AC"/>
<path fill-rule="evenodd" clip-rule="evenodd" d="M8.03364 7.33463C8.77002 7.33463 9.36697 6.73768 9.36697 6.0013C9.36697 5.26492 8.77002 4.66797 8.03364 4.66797C7.29726 4.66797 6.7003 5.26492 6.7003 6.0013C6.7003 6.73768 7.29726 7.33463 8.03364 7.33463ZM8.03364 8.66797C9.5064 8.66797 10.7003 7.47406 10.7003 6.0013C10.7003 4.52854 9.5064 3.33464 8.03364 3.33464C6.56088 3.33464 5.36697 4.52854 5.36697 6.0013C5.36697 7.47406 6.56088 8.66797 8.03364 8.66797Z" fill="#99A2AC"/>
</svg>
