<svg width="52" height="52" viewBox="0 0 52 52" fill="none" xmlns="http://www.w3.org/2000/svg">
<path d="M26 8C16.0752 8 8 16.0752 8 26C8 35.9248 16.0752 44 26 44C35.9248 44 44 35.9248 44 26C44 16.0752 35.9248 8 26 8ZM36.0601 21.2632L24.5564 32.6767C23.8797 33.3534 22.797 33.3985 22.0752 32.7218L15.985 27.1729C15.2632 26.4962 15.218 25.3684 15.8496 24.6466C16.5263 23.9248 17.6541 23.8797 18.3759 24.5564L23.203 28.9774L33.4887 18.6917C34.2105 17.9699 35.3383 17.9699 36.0601 18.6917C36.782 19.4135 36.782 20.5414 36.0601 21.2632Z" fill="#45E8E1"/>
</svg>
