<svg width="45" height="48" viewBox="0 0 45 48" fill="none" xmlns="http://www.w3.org/2000/svg">
<path d="M28.9697 15.1856C27.9661 14.2807 26.7808 13.6007 25.4931 13.191C24.2054 12.7813 22.845 12.6515 21.5031 12.8102C19.4775 13.0415 17.579 13.9145 16.085 15.3016C14.5909 16.6887 13.5796 18.5173 13.1987 20.5201C12.8179 22.5229 13.0875 24.5951 13.9682 26.4337C14.8489 28.2724 16.2945 29.7813 18.0938 30.7399V36.375C18.094 36.6733 18.2127 36.9593 18.4236 37.1702C18.6345 37.3811 18.9205 37.4997 19.2188 37.5H20.3438V38.625C20.344 38.9233 20.4627 39.2093 20.6736 39.4202C20.8845 39.6311 21.1705 39.7497 21.4688 39.75H23.7188C24.017 39.7497 24.303 39.6311 24.5139 39.4202C24.7248 39.2093 24.8435 38.9233 24.8438 38.625V37.5H25.9688C26.267 37.4997 26.553 37.3811 26.7639 37.1702C26.9748 36.9593 27.0935 36.6733 27.0938 36.375V30.7404C28.4514 30.0174 29.6144 28.9772 30.4838 27.7083C31.3532 26.4394 31.9034 24.9793 32.0876 23.4522C32.2718 21.9251 32.0845 20.376 31.5416 18.9368C30.9988 17.4976 30.1165 16.2107 28.9697 15.1856ZM25.9688 33V34.125H19.2188V33H25.9688ZM23.7199 38.625H21.4688V37.5H23.7188L23.7199 38.625ZM24.2812 36.375H19.2188V35.25H25.9688V36.375H24.2812ZM26.2849 29.8905C26.19 29.9366 26.1101 30.0085 26.0542 30.0979C25.9983 30.1874 25.9687 30.2907 25.9688 30.3962V31.875H23.1562V29.2954L24.6789 27.7727C24.7814 27.6666 24.8381 27.5245 24.8368 27.377C24.8355 27.2295 24.7764 27.0885 24.6721 26.9842C24.5678 26.8799 24.4267 26.8207 24.2792 26.8194C24.1317 26.8182 23.9897 26.8748 23.8836 26.9773L22.5938 28.2671L21.3039 26.9773C21.1978 26.8748 21.0558 26.8182 20.9083 26.8194C20.7608 26.8207 20.6197 26.8799 20.5154 26.9842C20.4111 27.0885 20.352 27.2295 20.3507 27.377C20.3494 27.5245 20.4061 27.6666 20.5086 27.7727L22.0312 29.2954V31.875H19.2188V30.3956C19.2188 30.2903 19.1892 30.1871 19.1334 30.0978C19.0776 30.0085 18.9978 29.9367 18.9032 29.8905C17.2613 29.093 15.9225 27.7842 15.0881 26.1608C14.2536 24.5374 13.9684 22.687 14.2755 20.8877C14.5825 19.0884 15.4651 17.4373 16.7907 16.1825C18.1164 14.9277 19.8134 14.1369 21.6268 13.929C21.9518 13.8927 22.2786 13.8745 22.6056 13.8744C24.6787 13.8684 26.6798 14.6346 28.2188 16.0237C29.2504 16.9459 30.0392 18.1079 30.5155 19.4071C30.9918 20.7063 31.1409 22.1027 30.9497 23.4732C30.7584 24.8437 30.2327 26.146 29.419 27.2652C28.6052 28.3844 27.5285 29.286 26.2838 29.8905H26.2849ZM22.5938 11.625C22.7429 11.625 22.886 11.5657 22.9915 11.4602C23.097 11.3548 23.1562 11.2117 23.1562 11.0625V8.8125C23.1562 8.66332 23.097 8.52024 22.9915 8.41475C22.886 8.30926 22.7429 8.25 22.5938 8.25C22.4446 8.25 22.3015 8.30926 22.196 8.41475C22.0905 8.52024 22.0312 8.66332 22.0312 8.8125V11.0625C22.0312 11.2117 22.0905 11.3548 22.196 11.4602C22.3015 11.5657 22.4446 11.625 22.5938 11.625ZM14.2406 14.7553C14.2929 14.8076 14.3549 14.849 14.4231 14.8773C14.4914 14.9056 14.5645 14.9202 14.6384 14.9202C14.7123 14.9203 14.7854 14.9057 14.8537 14.8775C14.922 14.8492 14.984 14.8078 15.0363 14.7556C15.0885 14.7034 15.13 14.6414 15.1583 14.5731C15.1866 14.5049 15.2012 14.4317 15.2012 14.3578C15.2012 14.2839 15.1867 14.2108 15.1585 14.1425C15.1302 14.0742 15.0888 14.0122 15.0366 13.9599L13.4453 12.3686C13.3934 12.3149 13.3313 12.272 13.2627 12.2426C13.194 12.2131 13.1202 12.1976 13.0455 12.1969C12.9708 12.1963 12.8968 12.2105 12.8277 12.2388C12.7585 12.2671 12.6957 12.3088 12.6429 12.3617C12.5901 12.4145 12.5483 12.4773 12.52 12.5464C12.4918 12.6155 12.4775 12.6896 12.4782 12.7643C12.4788 12.839 12.4943 12.9128 12.5238 12.9814C12.5533 13.05 12.5962 13.1121 12.6499 13.164L14.2406 14.7553ZM11.3438 21.75H9.09375C8.94457 21.75 8.80149 21.8093 8.696 21.9148C8.59051 22.0202 8.53125 22.1633 8.53125 22.3125C8.53125 22.4617 8.59051 22.6048 8.696 22.7102C8.80149 22.8157 8.94457 22.875 9.09375 22.875H11.3438C11.4929 22.875 11.636 22.8157 11.7415 22.7102C11.847 22.6048 11.9062 22.4617 11.9062 22.3125C11.9062 22.1633 11.847 22.0202 11.7415 21.9148C11.636 21.8093 11.4929 21.75 11.3438 21.75Z" fill="white"/>
<path d="M14.2407 29.8701L12.65 31.4614C12.5963 31.5133 12.5534 31.5753 12.5239 31.644C12.4945 31.7126 12.4789 31.7864 12.4783 31.8611C12.4776 31.9358 12.4919 32.0098 12.5202 32.079C12.5484 32.1481 12.5902 32.2109 12.643 32.2637C12.6958 32.3165 12.7586 32.3583 12.8278 32.3866C12.8969 32.4149 12.971 32.4291 13.0457 32.4284C13.1203 32.4278 13.1942 32.4123 13.2628 32.3828C13.3314 32.3533 13.3935 32.3105 13.4454 32.2567L15.0367 30.6654C15.1391 30.5593 15.1958 30.4172 15.1946 30.2698C15.1933 30.1223 15.1341 29.9812 15.0298 29.8769C14.9255 29.7726 14.7845 29.7135 14.637 29.7122C14.4895 29.7109 14.3468 29.7676 14.2407 29.8701ZM31.7424 12.369L30.1511 13.9603C30.0973 14.0122 30.0545 14.0743 30.025 14.1429C29.9955 14.2115 29.98 14.2853 29.9794 14.36C29.9787 14.4347 29.9929 14.5088 30.0212 14.5779C30.0495 14.647 30.0913 14.7098 30.1441 14.7627C30.1969 14.8155 30.2597 14.8572 30.3288 14.8855C30.398 14.9138 30.472 14.928 30.5467 14.9274C30.6214 14.9267 30.6952 14.9112 30.7638 14.8817C30.8325 14.8523 30.8945 14.8094 30.9464 14.7557L32.5377 13.1644C32.5915 13.1125 32.6343 13.0504 32.6638 12.9818C32.6933 12.9132 32.7088 12.8393 32.7094 12.7647C32.7101 12.69 32.6959 12.6159 32.6676 12.5468C32.6393 12.4776 32.5975 12.4148 32.5447 12.362C32.4919 12.3092 32.4291 12.2674 32.36 12.2392C32.2908 12.2109 32.2168 12.1966 32.1421 12.1973C32.0674 12.1979 31.9936 12.2135 31.925 12.2429C31.8563 12.2724 31.7943 12.3153 31.7424 12.369ZM30.947 29.8701C30.8415 29.7645 30.6984 29.7052 30.5492 29.7051C30.4 29.7051 30.2569 29.7643 30.1513 29.8698C30.0458 29.9752 29.9865 30.1183 29.9864 30.2675C29.9864 30.4168 30.0456 30.5599 30.1511 30.6654L31.7424 32.2567C31.8485 32.3592 31.9905 32.4159 32.138 32.4146C32.2855 32.4133 32.4266 32.3542 32.5309 32.2499C32.6352 32.1456 32.6943 32.0045 32.6956 31.857C32.6969 31.7095 32.6402 31.5675 32.5377 31.4614L30.947 29.8701ZM36.0939 21.7504H33.8439C33.6947 21.7504 33.5516 21.8096 33.4461 21.9151C33.3406 22.0206 33.2814 22.1637 33.2814 22.3129C33.2814 22.462 33.3406 22.6051 33.4461 22.7106C33.5516 22.8161 33.6947 22.8754 33.8439 22.8754H36.0939C36.2431 22.8754 36.3861 22.8161 36.4916 22.7106C36.5971 22.6051 36.6564 22.462 36.6564 22.3129C36.6564 22.1637 36.5971 22.0206 36.4916 21.9151C36.3861 21.8096 36.2431 21.7504 36.0939 21.7504Z" fill="white"/>
</svg>
