<svg width="51" height="50" viewBox="0 0 51 50" fill="none" xmlns="http://www.w3.org/2000/svg">
<path d="M39.2031 8.125H11.0781C10.3325 8.12589 9.61763 8.4225 9.09037 8.94975C8.56312 9.477 8.26652 10.1919 8.26562 10.9375V32.3125C8.26652 33.0581 8.56312 33.773 9.09037 34.3003C9.61763 34.8275 10.3325 35.1241 11.0781 35.125H20.3914L19.1258 38.5H17.8281C17.3806 38.5 16.9513 38.6778 16.6349 38.9943C16.3184 39.3107 16.1406 39.7399 16.1406 40.1875V41.3125C16.1406 41.4617 16.1999 41.6048 16.3054 41.7102C16.4109 41.8157 16.5539 41.875 16.7031 41.875H33.5781C33.7273 41.875 33.8704 41.8157 33.9759 41.7102C34.0814 41.6048 34.1406 41.4617 34.1406 41.3125V40.1875C34.1406 39.7399 33.9628 39.3107 33.6464 38.9943C33.3299 38.6778 32.9007 38.5 32.4531 38.5H31.1554L29.8898 35.125H39.2031C39.9488 35.1241 40.6636 34.8275 41.1909 34.3003C41.7181 33.773 42.0147 33.0581 42.0156 32.3125V10.9375C42.0147 10.1919 41.7181 9.477 41.1909 8.94975C40.6636 8.4225 39.9488 8.12589 39.2031 8.125ZM11.0781 9.25H39.2031C39.6507 9.25 40.0799 9.42779 40.3964 9.74426C40.7128 10.0607 40.8906 10.4899 40.8906 10.9375V28.375H9.39062V10.9375C9.39062 10.4899 9.56841 10.0607 9.88488 9.74426C10.2013 9.42779 10.6306 9.25 11.0781 9.25ZM33.0156 40.1875V40.75H17.2656V40.1875C17.2656 40.0383 17.3249 39.8952 17.4304 39.7898C17.5359 39.6843 17.6789 39.625 17.8281 39.625H32.4531C32.6023 39.625 32.7454 39.6843 32.8509 39.7898C32.9564 39.8952 33.0156 40.0383 33.0156 40.1875ZM29.9539 38.5H20.3273L21.5929 35.125H28.6883L29.9539 38.5ZM39.2031 34H11.0781C10.6306 34 10.2013 33.8222 9.88488 33.5057C9.56841 33.1893 9.39062 32.7601 9.39062 32.3125V29.5H40.8906V32.3125C40.8906 32.7601 40.7128 33.1893 40.3964 33.5057C40.0799 33.8222 39.6507 34 39.2031 34Z" fill="white"/>
<path d="M25.1406 30.0625C24.8069 30.0625 24.4806 30.1615 24.2031 30.3469C23.9256 30.5323 23.7093 30.7959 23.5816 31.1042C23.4539 31.4126 23.4204 31.7519 23.4856 32.0792C23.5507 32.4066 23.7114 32.7072 23.9474 32.9432C24.1834 33.1792 24.4841 33.34 24.8114 33.4051C25.1388 33.4702 25.4781 33.4368 25.7864 33.309C26.0948 33.1813 26.3583 32.965 26.5437 32.6875C26.7292 32.41 26.8281 32.0838 26.8281 31.75C26.8281 31.3024 26.6503 30.8732 26.3339 30.5568C26.0174 30.2403 25.5882 30.0625 25.1406 30.0625ZM25.1406 32.3125C25.0294 32.3125 24.9206 32.2795 24.8281 32.2177C24.7356 32.1559 24.6635 32.068 24.6209 31.9653C24.5784 31.8625 24.5672 31.7494 24.5889 31.6403C24.6106 31.5311 24.6642 31.4309 24.7429 31.3523C24.8215 31.2736 24.9218 31.22 25.0309 31.1983C25.14 31.1766 25.2531 31.1877 25.3559 31.2303C25.4587 31.2729 25.5465 31.345 25.6083 31.4375C25.6701 31.53 25.7031 31.6387 25.7031 31.75C25.7031 31.8992 25.6439 32.0423 25.5384 32.1477C25.4329 32.2532 25.2898 32.3125 25.1406 32.3125Z" fill="white"/>
</svg>
