<svg width="51" height="50" viewBox="0 0 51 50" fill="none" xmlns="http://www.w3.org/2000/svg">
<path d="M9.91846 15.6045C9.84691 14.7935 9.89418 13.9765 10.0588 13.1792C10.279 12.1861 10.7114 11.3617 11.3437 10.7296C12.2297 9.84286 13.4758 9.35686 15.0425 9.2849C15.8014 9.25642 16.5611 9.30821 17.3091 9.43942L17.5083 8.30669C16.6788 8.16114 15.8361 8.10392 14.9945 8.136C13.1275 8.22218 11.6256 8.82101 10.5309 9.91661C9.74017 10.707 9.20317 11.7222 8.93535 12.935C8.93489 12.9372 8.9342 12.9397 8.93374 12.9419C8.74547 13.8503 8.69137 14.7814 8.77318 15.7055L9.91846 15.6045ZM12.4403 23.118C12.0939 22.486 11.7764 21.851 11.4962 21.2299L10.448 21.7028C10.7404 22.3506 11.0714 23.0129 11.4321 23.6707L12.4403 23.118ZM9.10749 17.8263C9.25167 18.4424 9.42686 19.0508 9.6324 19.6492L10.7206 19.2775C10.5275 18.7159 10.363 18.145 10.2277 17.5668L9.10749 17.8263ZM16.9304 29.4503C16.8803 29.393 16.8303 29.3361 16.7806 29.2788L15.9128 30.0328C15.9637 30.0915 16.0147 30.1502 16.0664 30.2088C16.3623 30.5455 16.6634 30.8777 16.9695 31.205C17.1078 31.3527 17.2471 31.4994 17.3874 31.6452L18.2161 30.8479C17.7772 30.3917 17.3485 29.9257 16.9304 29.4503ZM14.5236 28.3433L15.4312 27.6375C15.348 27.5304 15.2653 27.4227 15.1833 27.3146C14.837 26.8594 14.5013 26.3961 14.1763 25.9253L13.2296 26.5779C13.5646 27.0633 13.9108 27.5409 14.2679 28.0102C14.3523 28.1218 14.4376 28.2328 14.5235 28.3432L14.5236 28.3433ZM18.3654 32.6297C19.4516 33.6897 20.5947 34.6898 21.7896 35.6257C23.41 36.9011 25.1396 38.0311 26.9585 39.0027C28.0208 39.5682 29.1217 40.0581 30.253 40.4687L29.2027 40.7694L29.519 41.8749L32.459 41.0337C32.7641 40.9464 32.9407 40.628 32.8534 40.3226L32.0874 37.6447L30.9816 37.9609L31.4687 39.6621C30.0961 39.2278 28.7668 38.6671 27.4978 37.9872C25.7391 37.0476 24.0666 35.9548 22.4999 34.7215C21.3374 33.8111 20.2252 32.8381 19.1683 31.807L18.3654 32.6297ZM41.9213 32.8177C41.6865 31.351 41.2014 29.7732 40.4793 28.1283L39.4264 28.5904C40.1092 30.1459 40.5664 31.6296 40.7857 32.9991C41.1972 35.5704 40.7452 37.5986 39.4788 38.8654C38.8517 39.4925 38.036 39.9225 37.0544 40.1438C36.2608 40.3223 35.3611 40.3649 34.3795 40.2709C34.1375 40.2477 33.8879 40.2155 33.6374 40.1759L33.4579 41.3116C33.731 41.3548 34.0042 41.3896 34.2697 41.4152C34.6437 41.451 35.008 41.469 35.3626 41.469C36.0164 41.4729 36.6685 41.4046 37.3072 41.2653C38.5045 40.9952 39.5085 40.4613 40.2918 39.6781C41.8297 38.1401 42.3931 35.7681 41.9213 32.8177H41.9213ZM39.1339 25.4657L38.135 26.035C38.4073 26.5124 38.6661 26.9974 38.911 27.4894L39.9409 26.9782C39.6866 26.4663 39.4175 25.9619 39.1339 25.4657ZM36.465 21.469L35.5516 22.1674C35.9816 22.73 36.3964 23.3042 36.7954 23.8893L37.7457 23.2419C37.3349 22.6394 36.9078 22.0483 36.465 21.469ZM33.6226 18.1458L32.7911 18.9397C33.2801 19.4521 33.755 19.9776 34.2153 20.5158L35.0892 19.7686C34.6151 19.2145 34.126 18.6734 33.6226 18.1458ZM19.3747 12.1706L20.499 11.9302L20.1278 10.1935C21.183 10.5678 22.2096 11.0184 23.1994 11.5418C24.9353 12.4583 26.5876 13.525 28.1373 14.7297C28.8679 15.2935 29.6039 15.9054 30.3247 16.5479C30.9113 17.072 31.4831 17.6124 32.0394 18.1686L32.8523 17.3556C32.6762 17.1795 32.4985 17.0049 32.3194 16.8319C31.9172 16.4432 31.5076 16.0624 31.0906 15.6897C30.3494 15.0293 29.5923 14.3998 28.8418 13.8208C28.111 13.2525 27.3543 12.7141 26.578 12.2045C27.0111 11.9599 27.4505 11.7265 27.8958 11.5047L27.3842 10.475C26.8683 10.7309 26.3416 11.0129 25.819 11.3124L26.1842 11.9497C25.3878 11.4423 24.5713 10.9671 23.7368 10.5251C22.9938 10.1329 22.2309 9.77934 21.4513 9.46596L22.4645 9.24961L22.2247 8.125L19.2346 8.76413C19.1608 8.77989 19.0907 8.81003 19.0286 8.85285C18.9664 8.89567 18.9132 8.95031 18.8722 9.01367C18.8311 9.07702 18.803 9.14785 18.7893 9.22209C18.7756 9.29634 18.7767 9.37256 18.7925 9.44638L19.3747 12.1706ZM8.71285 32.9076C8.56727 33.7372 8.51015 34.5799 8.54244 35.4215C8.62811 37.2883 9.22694 38.79 10.3228 39.8854C11.1132 40.6761 12.129 41.2126 13.3411 41.4803C13.3434 41.4804 13.3458 41.4811 13.3485 41.4816C13.9826 41.6132 14.6284 41.6795 15.276 41.6795C15.5546 41.6795 15.8332 41.6674 16.1116 41.6428L16.0107 40.4971C15.1997 40.569 14.3826 40.5216 13.5853 40.3565C12.592 40.137 11.7679 39.7051 11.1358 39.0724C10.2493 38.186 9.76308 36.9397 9.69112 35.3734C9.66241 34.6144 9.71418 33.8545 9.84558 33.1064L8.71285 32.9076ZM22.1089 39.9677C22.7572 39.6756 23.4193 39.3441 24.0766 38.9838L23.5244 37.9758C22.8926 38.3218 22.2574 38.6395 21.636 38.9195L22.1089 39.9677ZM18.2325 41.3084C18.8486 41.1643 19.457 40.9892 20.0554 40.7836L19.6836 39.6952C19.1221 39.8882 18.5511 40.0528 17.973 40.1883L18.2325 41.3084ZM29.6851 33.6349L30.4387 34.5034C30.4978 34.4523 30.5566 34.4011 30.6153 34.3495C30.9518 34.0535 31.2839 33.7524 31.6114 33.4464C31.7592 33.3081 31.9059 33.1687 32.0518 33.0284L31.2543 32.2C31.1126 32.3366 30.9697 32.4722 30.8257 32.6065C30.5072 32.9045 30.184 33.1975 29.8563 33.4854C29.7994 33.5354 29.7425 33.5854 29.6851 33.6349Z" fill="white"/>
<path d="M26.3318 36.2388L26.9844 37.1857C27.4699 36.8509 27.9475 36.5048 28.4169 36.1477C28.5283 36.0631 28.6392 35.9778 28.7497 35.892L28.0441 34.9839C27.4856 35.4186 26.9146 35.8371 26.3319 36.2388H26.3318ZM33.4056 9.62962C35.9767 9.21858 38.0051 9.67038 39.2719 10.9369C39.8986 11.5636 40.3288 12.3795 40.5503 13.3611C40.7286 14.155 40.7716 15.0549 40.6771 16.0363C40.6542 16.2778 40.6224 16.5272 40.5824 16.7782L41.7181 16.9578C41.7613 16.6839 41.7961 16.4107 41.8217 16.146C41.9275 15.0434 41.8771 14.0216 41.6717 13.1085C41.4019 11.9113 40.8681 10.9067 40.0848 10.1235C38.5466 8.58555 36.1739 8.02201 33.2242 8.49425C31.7582 8.72878 30.18 9.21409 28.5347 9.93595L28.9969 10.9891C30.5524 10.3063 32.0356 9.8489 33.4056 9.62968V9.62962ZM20.9219 16.2002L20.1744 15.3266C19.6206 15.8007 19.0796 16.2895 18.5519 16.7926L19.346 17.6244C19.8583 17.1355 20.3838 16.6606 20.9219 16.2002ZM24.296 13.6203L23.6481 12.67C23.0458 13.081 22.4547 13.508 21.8754 13.9507L22.5739 14.8642C23.1364 14.4339 23.7107 14.0192 24.296 13.6204L24.296 13.6203ZM41.4401 17.957C41.3529 17.6515 41.0344 17.475 40.7293 17.5623L38.0512 18.3287L38.3674 19.4342L40.0688 18.9473C39.6342 20.3199 39.0734 21.6492 38.3935 22.9183C37.4539 24.677 36.3611 26.3494 35.1277 27.9162C34.2172 29.0786 33.2442 30.1907 32.2131 31.2475L33.0359 32.0506C34.0959 30.9643 35.096 29.8212 36.032 28.6264C37.3074 27.006 38.4374 25.2764 39.409 23.4575C39.9744 22.3951 40.4643 21.2942 40.875 20.163L41.1757 21.2132L42.2812 20.897L41.4401 17.957ZM9.73255 31.6361C9.77284 31.6361 9.81331 31.6319 9.8531 31.6231L12.5769 31.0411L12.3365 29.9165L10.5999 30.288C10.9741 29.2327 11.4248 28.2061 11.9483 27.2164C12.8645 25.4803 13.9311 23.828 15.1359 22.2783C15.6995 21.5478 16.3114 20.8118 16.9541 20.0908C17.3166 19.6849 17.687 19.2862 18.0652 18.8949C18.2337 18.7205 18.4036 18.5476 18.5751 18.3761L17.7621 17.5632C17.1902 18.1348 16.6346 18.7224 16.096 19.3254C15.4348 20.0663 14.8059 20.8237 14.227 21.5739C12.9816 23.1761 11.879 24.8843 10.9317 26.6789C10.539 27.4217 10.1854 28.1846 9.87244 28.9644L9.65586 27.9506L8.53125 28.1908L9.17038 31.181C9.19792 31.3097 9.26874 31.4251 9.37104 31.5079C9.47333 31.5907 9.60093 31.636 9.73255 31.6361ZM20.4476 20.4443V29.565C20.4476 30.0516 20.7207 30.7368 22.105 31.2376C23.0014 31.5619 24.1732 31.7407 25.4177 31.7407H25.4622C26.1811 31.7407 26.8986 31.6751 27.6055 31.5448C29.3978 31.201 30.437 30.4794 30.437 29.565V20.4443C30.437 19.9575 30.1327 19.2727 28.7482 18.7714C27.8516 18.4472 26.664 18.2684 25.4179 18.2684C24.1714 18.2684 23.0049 18.4472 22.1084 18.7714C20.724 19.2725 20.4476 19.9574 20.4476 20.4443ZM27.3904 30.4148C26.74 30.5353 26.0797 30.5943 25.4182 30.591C24.3012 30.591 23.2737 30.4364 22.4997 30.1567C21.7426 29.8825 21.5975 29.6077 21.5975 29.565V27.9602C21.761 28.0468 21.9306 28.1214 22.105 28.1833C23.0014 28.5078 24.1732 28.6863 25.42 28.6863C26.667 28.6863 27.8566 28.5078 28.7529 28.1833C28.9495 28.1122 29.0716 28.0374 29.2872 27.9598V29.5647C29.2872 29.6727 28.8217 30.1402 27.3904 30.4147V30.4148ZM29.2873 26.5105C29.2873 26.5536 29.1143 26.8282 28.3574 27.1023C27.5831 27.3826 26.535 27.5366 25.418 27.5366C24.3012 27.5366 23.2737 27.3826 22.4997 27.1023C21.7426 26.8282 21.5975 26.5534 21.5975 26.5105V24.9268C21.761 25.0136 21.9306 25.0883 22.105 25.1502C23.0014 25.4747 24.1732 25.6532 25.42 25.6532C26.667 25.6532 27.8566 25.4747 28.7529 25.1502C28.9495 25.0791 29.0716 25.0042 29.2872 24.9268L29.2873 26.5105ZM28.3574 24.0689C27.5831 24.3491 26.535 24.5032 25.418 24.5032C24.3012 24.5032 23.2737 24.3491 22.4997 24.0689C21.7426 23.795 21.5975 23.5203 21.5975 23.4775V21.8935C21.7611 21.98 21.9307 22.0546 22.105 22.1168C23.0017 22.4413 24.1735 22.6198 25.42 22.6198C26.6666 22.6198 27.8563 22.4411 28.7529 22.1168C28.9495 22.0455 29.0716 21.9705 29.2872 21.8935V23.4775C29.2872 23.5203 29.1143 23.795 28.3574 24.0689ZM22.4788 19.8527C23.2531 19.5723 24.2945 19.4182 25.411 19.4182C26.5273 19.4182 27.569 19.5723 28.3432 19.8527C29.0999 20.1268 29.2594 20.4014 29.2594 20.4443C29.2594 20.4868 29.0999 20.7614 28.3432 21.0356C27.5689 21.3159 26.5273 21.47 25.411 21.47C24.2945 21.47 23.2531 21.3155 22.4788 21.0356C21.7216 20.7614 21.5624 20.4868 21.5624 20.4443C21.5624 20.4014 21.7219 20.1268 22.479 19.8527H22.4788Z" fill="white"/>
</svg>
