<svg width="52" height="52" viewBox="0 0 52 52" fill="none" xmlns="http://www.w3.org/2000/svg">
<path d="M22.7302 22.0487C22.6655 22.0487 22.6015 22.0614 22.5418 22.0862C22.4821 22.1109 22.4278 22.1472 22.3821 22.1929L19.6747 24.9002C19.3868 24.7332 19.0598 24.6454 18.727 24.6456C17.6802 24.6456 16.8285 25.4973 16.8285 26.5441C16.8285 27.5909 17.6802 28.4425 18.727 28.4425C19.7738 28.4425 20.6254 27.5909 20.6254 26.5441C20.6254 26.199 20.5324 25.8754 20.3708 25.5963L22.9341 23.033H28.066C28.1001 23.2295 28.1942 23.4106 28.3353 23.5516L29.3721 24.5884C29.556 24.7723 29.8006 24.8737 30.0607 24.8737C30.3207 24.8737 30.5654 24.7723 30.7492 24.5884C31.143 24.1945 31.6438 24.2037 31.9812 24.3434C32.3185 24.4831 32.679 24.8308 32.679 25.3877C32.679 25.9247 33.1159 26.3615 33.6528 26.3615H35.1191C35.656 26.3615 36.0928 25.9247 36.0928 25.3877C36.0928 24.8318 36.4535 24.4843 36.7912 24.3446C37.1288 24.2047 37.6296 24.1953 38.0226 24.5884C38.2066 24.7723 38.4511 24.8737 38.7113 24.8737C38.9714 24.8737 39.216 24.7723 39.3998 24.5884L40.4367 23.5516C40.5274 23.4614 40.5993 23.3541 40.6482 23.2359C40.6972 23.1177 40.7222 22.9909 40.7219 22.863C40.7219 22.6029 40.6206 22.3583 40.4367 22.1744C40.0436 21.7814 40.053 21.2806 40.1928 20.943C40.3327 20.6054 40.6802 20.2446 41.2361 20.2446C41.773 20.2446 42.2098 19.8078 42.2098 19.2708V17.8045C42.2098 17.2676 41.773 16.8308 41.2361 16.8308C40.6802 16.8308 40.3327 16.4701 40.1928 16.1324C40.053 15.7948 40.0436 15.294 40.4367 14.901C40.5274 14.8107 40.5993 14.7034 40.6482 14.5852C40.6972 14.467 40.7222 14.3403 40.7219 14.2124C40.7219 13.9522 40.6206 13.7076 40.4367 13.5238L39.3998 12.4869C39.2159 12.303 38.9714 12.2017 38.7113 12.2017C38.4512 12.2017 38.2066 12.303 38.0227 12.4869C37.6297 12.88 37.1289 12.8707 36.7913 12.7308C36.4536 12.5909 36.0929 12.2434 36.0929 11.6875C36.0929 11.1506 35.6561 10.7137 35.1191 10.7137H33.6529C33.1159 10.7137 32.6791 11.1506 32.6791 11.6875C32.6791 12.2434 32.3184 12.5909 31.9807 12.7308C31.6432 12.8705 31.1423 12.88 30.7492 12.4869C30.3695 12.1072 29.7517 12.1072 29.3721 12.4869L28.3353 13.5237C28.1939 13.6645 28.0997 13.8457 28.0655 14.0422H22.934L20.3708 11.4791C20.5378 11.1911 20.6257 10.8641 20.6254 10.5312C20.6254 9.48444 19.7738 8.63281 18.727 8.63281C17.6802 8.63281 16.8285 9.48444 16.8285 10.5312C16.8285 11.5781 17.6802 12.4297 18.727 12.4297C19.072 12.4297 19.3956 12.3367 19.6747 12.1752L22.3821 14.8825C22.4278 14.9283 22.4821 14.9645 22.5418 14.9892C22.6015 15.014 22.6655 15.0267 22.7302 15.0267H28.4438C28.7239 15.3964 28.7044 15.8299 28.579 16.1325C28.4392 16.4701 28.0917 16.8308 27.5358 16.8308C26.9989 16.8308 26.562 17.2677 26.562 17.8046V18.0455H22.6793C22.4618 17.2367 21.7225 16.6393 20.8459 16.6393C19.7991 16.6393 18.9475 17.4909 18.9475 18.5377C18.9475 19.5845 19.7991 20.4362 20.8459 20.4362C21.7225 20.4362 22.4618 19.8388 22.6793 19.0299H26.562V19.2709C26.562 19.8079 26.9989 20.2447 27.5358 20.2447C28.0917 20.2447 28.4392 20.6054 28.579 20.9431C28.7043 21.2456 28.7239 21.6791 28.4438 22.0488L22.7302 22.0487ZM18.727 27.4582C18.223 27.4582 17.8129 27.0481 17.8129 26.5441C17.8129 26.0401 18.223 25.6301 18.727 25.6301C19.231 25.6301 19.641 26.0401 19.641 26.5441C19.641 27.0481 19.231 27.4582 18.727 27.4582ZM18.727 11.4453C18.223 11.4453 17.8129 11.0352 17.8129 10.5312C17.8129 10.0272 18.223 9.61719 18.727 9.61719C19.231 9.61719 19.641 10.0272 19.641 10.5312C19.641 11.0352 19.231 11.4453 18.727 11.4453ZM20.8459 19.4518C20.3419 19.4518 19.9319 19.0417 19.9319 18.5377C19.9319 18.0337 20.3419 17.6237 20.8459 17.6237C21.3499 17.6237 21.76 18.0337 21.76 18.5377C21.76 19.0417 21.3499 19.4518 20.8459 19.4518ZM27.5464 19.2603V17.8151C28.4126 17.8111 29.1562 17.3114 29.4885 16.5091C29.8209 15.7068 29.6483 14.8278 29.0387 14.2124L30.0607 13.1904C30.6761 13.8001 31.5551 13.9725 32.3575 13.6402C33.1598 13.3078 33.6595 12.5643 33.6635 11.6981H35.1086C35.1126 12.5643 35.6122 13.3079 36.4146 13.6402C37.2169 13.9725 38.096 13.8001 38.7113 13.1904L39.7333 14.2124C39.1237 14.8278 38.9512 15.7067 39.2835 16.5091C39.6158 17.3115 40.3594 17.8111 41.2256 17.8151V19.2603C40.3594 19.2644 39.6158 19.7641 39.2835 20.5663C38.9512 21.3687 39.1237 22.2476 39.7333 22.8631L38.7114 23.8851C38.096 23.2754 37.217 23.1029 36.4146 23.4353C35.6122 23.7676 35.1126 24.5111 35.1086 25.3774H33.6635C33.6595 24.5103 33.16 23.7664 32.358 23.4342C31.5559 23.1019 30.6767 23.2748 30.0607 23.8851L29.0387 22.8631C29.6484 22.2478 29.8209 21.3687 29.4885 20.5664C29.1562 19.7641 28.4127 19.2644 27.5464 19.2603ZM34.3859 22.6128C36.633 22.6128 38.461 20.7848 38.461 18.5377C38.461 16.2907 36.6329 14.4626 34.3859 14.4626C32.139 14.4626 30.3108 16.2907 30.3108 18.5377C30.3108 20.7848 32.139 22.6128 34.3859 22.6128ZM34.3859 15.4471C36.0902 15.4471 37.4767 16.8336 37.4767 18.5378C37.4767 20.242 36.0902 21.6285 34.3859 21.6285C32.6817 21.6285 31.2952 20.242 31.2952 18.5378C31.2952 16.8336 32.6818 15.4471 34.3859 15.4471ZM43.0346 34.4637C42.5513 33.6265 41.4768 33.3387 40.6395 33.822L33.4328 37.9827L27.4439 35.8956C27.5174 35.811 27.5859 35.7222 27.6491 35.6296L31.378 35.0861C32.4264 34.9334 33.1586 34.1741 33.1586 33.2397C33.1586 32.2187 32.328 31.3881 31.3071 31.3881H26.4026C26.0469 31.2356 25.6639 31.1571 25.2768 31.1574C24.8605 31.1571 24.4493 31.2481 24.0719 31.4239L24.0717 31.4235L17.0266 34.247H13.6204V33.0235C13.6204 32.893 13.5685 32.7678 13.4762 32.6755C13.3839 32.5832 13.2587 32.5313 13.1282 32.5313H9.02344C8.8929 32.5313 8.76771 32.5832 8.67541 32.6755C8.58311 32.7678 8.53125 32.893 8.53125 33.0235V42.875C8.53125 43.0055 8.58311 43.1307 8.67541 43.223C8.76771 43.3153 8.8929 43.3672 9.02344 43.3672H13.1282C13.2587 43.3672 13.3839 43.3153 13.4762 43.223C13.5685 43.1307 13.6204 43.0055 13.6204 42.875V41.6585C15.1579 41.6989 17.1099 41.914 19.1661 42.141C21.9371 42.447 25.0661 42.7925 27.9132 42.7925C28.0064 42.7925 28.0992 42.7921 28.1917 42.7913C31.6087 42.7635 34.0481 42.2116 35.6487 41.1042L42.409 36.8491C43.2326 36.3307 43.5075 35.2829 43.0346 34.4637ZM33.6462 39.8208L34.1933 40.7994C33.9098 40.9299 33.609 41.0456 33.292 41.1474L33.6462 39.8208ZM32.1743 33.2397C32.1743 33.7479 31.7031 34.044 31.2361 34.112L28.0898 34.5706C28.1242 34.3933 28.1428 34.2105 28.1428 34.0233C28.1428 33.4089 27.9478 32.8395 27.6174 32.3724H31.3071C31.7852 32.3725 32.1743 32.7615 32.1743 33.2397ZM27.1584 34.0234C27.1584 35.0609 26.3144 35.905 25.2769 35.905C24.2393 35.905 23.3952 35.0609 23.3952 34.0234C23.3952 32.9858 24.2393 32.1418 25.2769 32.1418C26.3144 32.1418 27.1584 32.9858 27.1584 34.0234ZM17.0468 37.9493C17.0468 39.4479 15.8276 40.6671 14.3289 40.6671C12.8303 40.6671 11.6111 39.4479 11.6111 37.9493C11.6111 36.4506 12.8303 35.2314 14.3289 35.2314C15.8276 35.2314 17.0468 36.4506 17.0468 37.9493ZM9.51562 42.3828V33.5157H12.636V34.6585C11.444 35.2742 10.6268 36.5177 10.6268 37.9493C10.6268 39.3808 11.4441 40.6243 12.636 41.2401V42.3828H9.51562ZM19.2741 41.1626C18.35 41.0606 17.4472 40.9611 16.5896 40.8781C17.4656 40.2005 18.0312 39.1399 18.0312 37.9493C18.0312 36.8759 17.5716 35.9082 16.8394 35.2314H17.1217C17.1844 35.2314 17.2466 35.2194 17.3048 35.1961L22.569 33.0863C22.4642 33.3876 22.4107 33.7044 22.4108 34.0234C22.4108 35.6038 23.6965 36.8894 25.2768 36.8894C25.7024 36.8899 26.1227 36.7949 26.5068 36.6116L32.8902 38.8361L32.1966 41.434C28.5898 42.1909 23.5356 41.6331 19.2741 41.1626ZM41.8846 36.0161L35.1152 40.277C35.1089 40.2809 35.1027 40.285 35.0966 40.2893C35.0821 40.2993 35.067 40.3089 35.0524 40.3188L34.1502 38.7052L41.1317 34.6745C41.4989 34.4624 41.9702 34.5887 42.1822 34.9559C42.3894 35.3149 42.2587 35.7806 41.8846 36.0161ZM24.6307 34.0234C24.6307 33.6675 24.921 33.3773 25.2769 33.3773C25.6328 33.3773 25.923 33.6675 25.923 34.0234C25.923 34.3794 25.6327 34.6696 25.2769 34.6696C24.921 34.6695 24.6307 34.3793 24.6307 34.0234ZM13.6828 37.9493C13.6828 37.5933 13.9731 37.3031 14.329 37.3031C14.6849 37.3031 14.9752 37.5933 14.9752 37.9493C14.9752 38.3052 14.6849 38.5954 14.329 38.5954C13.9731 38.5954 13.6828 38.3052 13.6828 37.9493Z" fill="white"/>
</svg>
