<svg width="48" height="48" viewBox="0 0 48 48" fill="none" xmlns="http://www.w3.org/2000/svg">
<path d="M9.39062 19.5C9.68899 19.5 9.97514 19.3815 10.1861 19.1705C10.3971 18.9595 10.5156 18.6734 10.5156 18.375V10.5H13.8906C14.189 10.5 14.4751 10.3815 14.6861 10.1705C14.8971 9.95952 15.0156 9.67337 15.0156 9.375C15.0156 9.07663 14.8971 8.79048 14.6861 8.5795C14.4751 8.36853 14.189 8.25 13.8906 8.25H9.39062C9.09226 8.25 8.80611 8.36853 8.59513 8.5795C8.38415 8.79048 8.26563 9.07663 8.26562 9.375V18.375C8.26562 18.6734 8.38415 18.9595 8.59513 19.1705C8.80611 19.3815 9.09226 19.5 9.39062 19.5ZM38.6406 8.25H34.1406C33.8423 8.25 33.5561 8.36853 33.3451 8.5795C33.1342 8.79048 33.0156 9.07663 33.0156 9.375C33.0156 9.67337 33.1342 9.95952 33.3451 10.1705C33.5561 10.3815 33.8423 10.5 34.1406 10.5H37.5156V18.375C37.5156 18.6734 37.6342 18.9595 37.8451 19.1705C38.0561 19.3815 38.3423 19.5 38.6406 19.5C38.939 19.5 39.2251 19.3815 39.4361 19.1705C39.6471 18.9595 39.7656 18.6734 39.7656 18.375V9.375C39.7656 9.07663 39.6471 8.79048 39.4361 8.5795C39.2251 8.36853 38.939 8.25 38.6406 8.25ZM13.8906 37.5H10.5156V29.625C10.5156 29.3266 10.3971 29.0405 10.1861 28.8295C9.97514 28.6185 9.68899 28.5 9.39062 28.5C9.09226 28.5 8.80611 28.6185 8.59513 28.8295C8.38415 29.0405 8.26563 29.3266 8.26562 29.625V38.625C8.26562 38.9234 8.38415 39.2095 8.59513 39.4205C8.80611 39.6315 9.09226 39.75 9.39062 39.75H13.8906C14.189 39.75 14.4751 39.6315 14.6861 39.4205C14.8971 39.2095 15.0156 38.9234 15.0156 38.625C15.0156 38.3266 14.8971 38.0405 14.6861 37.8295C14.4751 37.6185 14.189 37.5 13.8906 37.5ZM38.6406 28.5C38.3423 28.5 38.0561 28.6185 37.8451 28.8295C37.6342 29.0405 37.5156 29.3266 37.5156 29.625V37.5H34.1406C33.8423 37.5 33.5561 37.6185 33.3451 37.8295C33.1342 38.0405 33.0156 38.3266 33.0156 38.625C33.0156 38.9234 33.1342 39.2095 33.3451 39.4205C33.5561 39.6315 33.8423 39.75 34.1406 39.75H38.6406C38.939 39.75 39.2251 39.6315 39.4361 39.4205C39.6471 39.2095 39.7656 38.9234 39.7656 38.625V29.625C39.7656 29.3266 39.6471 29.0405 39.4361 28.8295C39.2251 28.6185 38.939 28.5 38.6406 28.5ZM33.0156 30.75C33.0156 31.0484 33.1342 31.3345 33.3451 31.5455C33.5561 31.7565 33.8423 31.875 34.1406 31.875C34.439 31.875 34.7251 31.7565 34.9361 31.5455C35.1471 31.3345 35.2656 31.0484 35.2656 30.75V24H36.3906C36.689 24 36.9751 23.8815 37.1861 23.6705C37.3971 23.4595 37.5156 23.1734 37.5156 22.875C37.5156 22.5766 37.3971 22.2905 37.1861 22.0795C36.9751 21.8685 36.689 21.75 36.3906 21.75H11.6406C11.3423 21.75 11.0561 21.8685 10.8451 22.0795C10.6342 22.2905 10.5156 22.5766 10.5156 22.875C10.5156 23.1734 10.6342 23.4595 10.8451 23.6705C11.0561 23.8815 11.3423 24 11.6406 24H12.7656V30.75C12.7656 31.0484 12.8842 31.3345 13.0951 31.5455C13.3061 31.7565 13.5923 31.875 13.8906 31.875C14.189 31.875 14.4751 31.7565 14.6861 31.5455C14.8971 31.3345 15.0156 31.0484 15.0156 30.75V24H16.1406V30.75C16.1406 31.0484 16.2592 31.3345 16.4701 31.5455C16.6811 31.7565 16.9673 31.875 17.2656 31.875H18.3906C18.689 31.875 18.9751 31.7565 19.1861 31.5455C19.3971 31.3345 19.5156 31.0484 19.5156 30.75V24H20.6406V30.75C20.6406 31.0484 20.7592 31.3345 20.9701 31.5455C21.1811 31.7565 21.4673 31.875 21.7656 31.875C22.064 31.875 22.3501 31.7565 22.5611 31.5455C22.7721 31.3345 22.8906 31.0484 22.8906 30.75V24H24.0156V30.75C24.0156 31.0484 24.1342 31.3345 24.3451 31.5455C24.5561 31.7565 24.8423 31.875 25.1406 31.875H26.2656C26.564 31.875 26.8501 31.7565 27.0611 31.5455C27.2721 31.3345 27.3906 31.0484 27.3906 30.75V24H28.5156V30.75C28.5156 31.0484 28.6342 31.3345 28.8451 31.5455C29.0561 31.7565 29.3423 31.875 29.6406 31.875H30.7656C31.064 31.875 31.3501 31.7565 31.5611 31.5455C31.7721 31.3345 31.8906 31.0484 31.8906 30.75V24H33.0156V30.75ZM13.8906 16.125C13.5923 16.125 13.3061 16.2435 13.0951 16.4545C12.8842 16.6655 12.7656 16.9516 12.7656 17.25V19.5C12.7656 19.7984 12.8842 20.0845 13.0951 20.2955C13.3061 20.5065 13.5923 20.625 13.8906 20.625C14.189 20.625 14.4751 20.5065 14.6861 20.2955C14.8971 20.0845 15.0156 19.7984 15.0156 19.5V17.25C15.0156 16.9516 14.8971 16.6655 14.6861 16.4545C14.4751 16.2435 14.189 16.125 13.8906 16.125ZM17.2656 20.625H18.3906C18.689 20.625 18.9751 20.5065 19.1861 20.2955C19.3971 20.0845 19.5156 19.7984 19.5156 19.5V17.25C19.5156 16.9516 19.3971 16.6655 19.1861 16.4545C18.9751 16.2435 18.689 16.125 18.3906 16.125H17.2656C16.9673 16.125 16.6811 16.2435 16.4701 16.4545C16.2592 16.6655 16.1406 16.9516 16.1406 17.25V19.5C16.1406 19.7984 16.2592 20.0845 16.4701 20.2955C16.6811 20.5065 16.9673 20.625 17.2656 20.625ZM21.7656 20.625C22.064 20.625 22.3501 20.5065 22.5611 20.2955C22.7721 20.0845 22.8906 19.7984 22.8906 19.5V17.25C22.8906 16.9516 22.7721 16.6655 22.5611 16.4545C22.3501 16.2435 22.064 16.125 21.7656 16.125C21.4673 16.125 21.1811 16.2435 20.9701 16.4545C20.7592 16.6655 20.6406 16.9516 20.6406 17.25V19.5C20.6406 19.7984 20.7592 20.0845 20.9701 20.2955C21.1811 20.5065 21.4673 20.625 21.7656 20.625ZM25.1406 20.625H26.2656C26.564 20.625 26.8501 20.5065 27.0611 20.2955C27.2721 20.0845 27.3906 19.7984 27.3906 19.5V17.25C27.3906 16.9516 27.2721 16.6655 27.0611 16.4545C26.8501 16.2435 26.564 16.125 26.2656 16.125H25.1406C24.8423 16.125 24.5561 16.2435 24.3451 16.4545C24.1342 16.6655 24.0156 16.9516 24.0156 17.25V19.5C24.0156 19.7984 24.1342 20.0845 24.3451 20.2955C24.5561 20.5065 24.8423 20.625 25.1406 20.625ZM34.1406 20.625C34.439 20.625 34.7251 20.5065 34.9361 20.2955C35.1471 20.0845 35.2656 19.7984 35.2656 19.5V17.25C35.2656 16.9516 35.1471 16.6655 34.9361 16.4545C34.7251 16.2435 34.439 16.125 34.1406 16.125C33.8423 16.125 33.5561 16.2435 33.3451 16.4545C33.1342 16.6655 33.0156 16.9516 33.0156 17.25V19.5C33.0156 19.7984 33.1342 20.0845 33.3451 20.2955C33.5561 20.5065 33.8423 20.625 34.1406 20.625ZM29.6406 20.625H30.7656C31.064 20.625 31.3501 20.5065 31.5611 20.2955C31.7721 20.0845 31.8906 19.7984 31.8906 19.5V17.25C31.8906 16.9516 31.7721 16.6655 31.5611 16.4545C31.3501 16.2435 31.064 16.125 30.7656 16.125H29.6406C29.3423 16.125 29.0561 16.2435 28.8451 16.4545C28.6342 16.6655 28.5156 16.9516 28.5156 17.25V19.5C28.5156 19.7984 28.6342 20.0845 28.8451 20.2955C29.0561 20.5065 29.3423 20.625 29.6406 20.625Z" fill="white"/>
</svg>
