<svg width="17" height="18" viewBox="0 0 17 18" fill="none" xmlns="http://www.w3.org/2000/svg">
<path d="M6.45036 8.41518C6.11702 8.08185 5.61702 8.08185 5.28369 8.41518C4.95036 8.74852 4.95036 9.24852 5.28369 9.58185L7.78369 12.0819C7.95036 12.2485 8.11702 12.3319 8.36702 12.3319C8.61702 12.3319 8.78369 12.2485 8.95036 12.0819L14.7837 5.41518C15.0337 4.99852 15.0337 4.49852 14.617 4.24852C14.2837 3.99852 13.7837 3.99852 13.5337 4.33185L8.36702 10.2485L6.45036 8.41518Z" fill="#1FCB4F"/>
<path d="M15.867 8.16602C15.367 8.16602 15.0337 8.49935 15.0337 8.99935C15.0337 12.666 12.0337 15.666 8.36703 15.666C4.70036 15.666 1.70036 12.666 1.70036 8.99935C1.70036 7.24935 2.36703 5.58268 3.61703 4.33268C4.86703 2.99935 6.53369 2.33268 8.36703 2.33268C8.86703 2.33268 9.45036 2.41602 9.95036 2.49935C10.367 2.66602 10.867 2.41602 11.0337 1.91602C11.2004 1.41602 10.867 1.08268 10.4504 0.916016H10.367C9.70036 0.749349 9.03369 0.666016 8.36703 0.666016C3.78369 0.666016 0.0336914 4.41602 0.0336914 9.08268C0.0336914 11.2493 0.950358 13.416 2.45036 14.916C4.03369 16.4993 6.11703 17.3327 8.28369 17.3327C12.867 17.3327 16.617 13.5827 16.617 8.99935C16.7004 8.49935 16.2837 8.16602 15.867 8.16602Z" fill="#1FCB4F"/>
</svg>
