<svg width="12" height="14" viewBox="0 0 12 14" fill="none" xmlns="http://www.w3.org/2000/svg">
<path d="M7.19079 4.48438C7.01561 4.48438 6.87361 4.62638 6.87361 4.80156V10.7963C6.87361 10.9714 7.01561 11.1135 7.19079 11.1135C7.366 11.1135 7.50797 10.9714 7.50797 10.7963V4.80156C7.50797 4.62638 7.366 4.48438 7.19079 4.48438ZM3.44804 4.48438C3.27286 4.48438 3.13086 4.62638 3.13086 4.80156V10.7963C3.13086 10.9714 3.27286 11.1135 3.44804 11.1135C3.62325 11.1135 3.76522 10.9714 3.76522 10.7963V4.80156C3.76522 4.62638 3.62325 4.48438 3.44804 4.48438Z" fill="#99A2AC"/>
<path d="M0.934534 4.03209V11.8468C0.934534 12.3087 1.10391 12.7425 1.39978 13.0537C1.54546 13.2081 1.7211 13.3312 1.91595 13.4154C2.1108 13.4997 2.32078 13.5433 2.53307 13.5437H8.53428C8.74658 13.5434 8.95656 13.4997 9.15142 13.4155C9.34628 13.3312 9.5219 13.2081 9.66758 13.0537C9.96348 12.7425 10.1328 12.3087 10.1328 11.8468V4.03209C10.721 3.87598 11.1021 3.30778 11.0234 2.70427C10.9446 2.10087 10.4306 1.64952 9.82195 1.64939H8.19801V1.25291C8.19892 1.08786 8.16704 0.924272 8.10421 0.771645C8.04138 0.619018 7.94885 0.480393 7.83201 0.363817C7.71514 0.247254 7.57627 0.155071 7.42347 0.0926225C7.27068 0.0301741 7.10699 -0.00129552 6.94193 4.11149e-05H4.12545C3.96038 -0.00129973 3.7967 0.0301678 3.64389 0.0926164C3.49109 0.155065 3.35222 0.24725 3.23534 0.363817C3.1185 0.480393 3.02597 0.619018 2.96314 0.771645C2.90032 0.924272 2.86843 1.08786 2.86935 1.25291V1.64939H1.24544C0.636826 1.64952 0.122769 2.10087 0.0439493 2.70427C-0.0347119 3.30778 0.346383 3.87598 0.934534 4.03209ZM8.53428 12.9094H2.5331C1.99078 12.9094 1.5689 12.4435 1.5689 11.8468V4.05997H9.49846V11.8468C9.49846 12.4435 9.0766 12.9094 8.53428 12.9094ZM3.50371 1.25291C3.50267 1.17114 3.51807 1.08999 3.549 1.01428C3.57993 0.938571 3.62575 0.869847 3.68374 0.812186C3.74172 0.754493 3.81069 0.709029 3.88656 0.67849C3.96244 0.647952 4.04367 0.63296 4.12545 0.634406H6.94193C7.02371 0.63296 7.10495 0.647952 7.18082 0.67849C7.2567 0.709029 7.32567 0.754493 7.38364 0.812186C7.44164 0.869843 7.48746 0.938567 7.51838 1.01428C7.5493 1.08999 7.56469 1.17114 7.56364 1.25291V1.64939H3.50371V1.25291ZM1.24544 2.28375H9.82201C10.1373 2.28375 10.3929 2.53937 10.3929 2.85468C10.3929 3.16999 10.1373 3.42561 9.82201 3.42561H1.2454C0.930093 3.42561 0.674476 3.16999 0.674476 2.85468C0.674476 2.53937 0.930125 2.28375 1.24544 2.28375Z" fill="#99A2AC"/>
<path d="M5.31962 4.48438C5.14444 4.48438 5.00244 4.62638 5.00244 4.80156V10.7963C5.00244 10.9714 5.14444 11.1135 5.31962 11.1135C5.49484 11.1135 5.63681 10.9714 5.63681 10.7963V4.80156C5.63681 4.62638 5.49484 4.48438 5.31962 4.48438Z" fill="#99A2AC"/>
</svg>
