<svg width="14" height="13" viewBox="0 0 14 13" fill="none" xmlns="http://www.w3.org/2000/svg">
<path fill-rule="evenodd" clip-rule="evenodd" d="M10.7002 1.91927C10.5019 1.91927 10.3118 1.99803 10.1716 2.13822L2.32874 9.98114L2.15254 11.2145L3.38594 11.0383L11.2288 3.19541C11.2982 3.126 11.3533 3.04359 11.3908 2.95289C11.4284 2.86219 11.4477 2.76499 11.4477 2.66682C11.4477 2.56865 11.4284 2.47144 11.3908 2.38074C11.3533 2.29005 11.2982 2.20764 11.2288 2.13822C11.1594 2.06881 11.077 2.01374 10.9863 1.97617C10.8956 1.93861 10.7984 1.91927 10.7002 1.91927ZM9.2288 1.19541C9.61904 0.805172 10.1483 0.585938 10.7002 0.585938C10.9735 0.585938 11.2441 0.639761 11.4965 0.744335C11.749 0.848909 11.9784 1.00219 12.1716 1.19541C12.3648 1.38864 12.5181 1.61803 12.6227 1.8705C12.7273 2.12296 12.7811 2.39355 12.7811 2.66682C12.7811 2.94008 12.7273 3.21067 12.6227 3.46314C12.5181 3.7156 12.3648 3.94499 12.1716 4.13822L4.17161 12.1383C4.06961 12.2403 3.93727 12.3064 3.79447 12.3268L1.46114 12.6601C1.25341 12.6898 1.04383 12.6199 0.895458 12.4716C0.747084 12.3232 0.677227 12.1136 0.706903 11.9059L1.04024 9.57259C1.06064 9.42979 1.1268 9.29746 1.2288 9.19547L9.2288 1.19541ZM6.36677 12.3335C6.36677 11.9653 6.66525 11.6668 7.03344 11.6668H13.0334C13.4016 11.6668 13.7001 11.9653 13.7001 12.3335C13.7001 12.7017 13.4016 13.0001 13.0334 13.0001H7.03344C6.66525 13.0001 6.36677 12.7017 6.36677 12.3335Z" fill="#99A2AC"/>
</svg>
