<svg width="17" height="16" viewBox="0 0 17 16" fill="none" xmlns="http://www.w3.org/2000/svg">
<path d="M8.03369 16C12.452 16 16.0337 12.4183 16.0337 8C16.0337 3.58172 12.452 0 8.03369 0C3.61541 0 0.0336914 3.58172 0.0336914 8C0.0336914 12.4183 3.61541 16 8.03369 16Z" fill="#CB1F34"/>
<path d="M8.03369 15.0938C11.9515 15.0938 15.1274 11.9178 15.1274 8C15.1274 4.08223 11.9515 0.90625 8.03369 0.90625C4.11592 0.90625 0.939941 4.08223 0.939941 8C0.939941 11.9178 4.11592 15.0938 8.03369 15.0938Z" fill="#212036"/>
<path d="M8.04287 5.13333C7.82535 5.13817 7.61378 5.06211 7.44912 4.91989C7.28433 4.77739 7.20193 4.57593 7.20193 4.31551C7.19893 4.20574 7.22008 4.09664 7.26387 3.99594C7.30766 3.89523 7.37304 3.80537 7.45537 3.7327C7.61501 3.58374 7.82579 3.50184 8.04412 3.50395C8.25411 3.50184 8.45781 3.57551 8.61787 3.71145C8.78454 3.84958 8.86787 4.05093 8.86787 4.31551C8.86787 4.57176 8.78652 4.77218 8.62381 4.91676C8.46458 5.05992 8.25696 5.13732 8.04287 5.13333ZM8.86693 6.85458V11.6702C8.86693 12.0035 8.78756 12.2558 8.62881 12.4271C8.55245 12.5107 8.45898 12.5769 8.35474 12.6212C8.2505 12.6655 8.13795 12.6868 8.02475 12.6836C7.78037 12.6836 7.58193 12.5961 7.42943 12.4211C7.27693 12.2461 7.20068 11.9961 7.20068 11.6711V6.90333C7.20068 6.57395 7.27693 6.32583 7.42943 6.15895C7.58193 5.99207 7.78037 5.90874 8.02475 5.90895C8.2687 5.90895 8.47006 5.99228 8.62881 6.15895C8.78756 6.32562 8.86693 6.55749 8.86693 6.85458Z" fill="#CB1F34"/>
</svg>
