<svg width="4" height="12" viewBox="0 0 4 12" fill="none" xmlns="http://www.w3.org/2000/svg">
<path d="M2.03353 3.33268C2.76686 3.33268 3.36686 2.73268 3.36686 1.99935C3.36686 1.26602 2.76686 0.666016 2.03353 0.666016C1.3002 0.666016 0.700195 1.26602 0.700195 1.99935C0.700195 2.73268 1.3002 3.33268 2.03353 3.33268ZM2.03353 4.66602C1.3002 4.66602 0.700195 5.26602 0.700195 5.99935C0.700195 6.73268 1.3002 7.33268 2.03353 7.33268C2.76686 7.33268 3.36686 6.73268 3.36686 5.99935C3.36686 5.26602 2.76686 4.66602 2.03353 4.66602ZM2.03353 8.66602C1.3002 8.66602 0.700195 9.26602 0.700195 9.99935C0.700195 10.7327 1.3002 11.3327 2.03353 11.3327C2.76686 11.3327 3.36686 10.7327 3.36686 9.99935C3.36686 9.26602 2.76686 8.66602 2.03353 8.66602Z" fill="white" fill-opacity="0.8"/>
</svg>
