<svg width="11" height="11" viewBox="0 0 11 11" fill="none" xmlns="http://www.w3.org/2000/svg">
<path d="M3.18887 9.29696C2.71562 8.76546 2.33337 8.24545 1.96412 7.74195C1.62676 7.28402 1.33424 6.79468 1.09062 6.2807C0.93812 5.9687 0.87062 5.6532 1.20087 5.44995C2.14762 4.86821 2.34162 5.42371 2.85587 6.0682C3.16087 6.4502 3.61087 7.07996 3.89262 7.47795C4.16187 7.85795 4.49012 7.1722 4.62087 6.97845C5.08662 6.29095 6.29662 4.60696 6.79687 3.9847C7.27162 3.3937 8.80387 1.73845 9.08937 1.4752C9.33262 1.25095 9.84612 0.759455 10.1914 1.0307C10.5539 1.3157 10.7314 1.85745 10.4764 2.2097C10.0321 2.82295 9.33462 3.4062 8.85187 3.9902C7.87487 5.1722 6.94987 6.44621 6.06187 7.71496C5.76012 8.14596 5.33662 8.86795 5.07362 9.33545C4.58162 10.2102 4.14962 10.3765 3.18862 9.29696H3.18887Z" fill="#99A2AC"/>
</svg>
