<svg width="29" height="24" viewBox="0 0 29 24" fill="none" xmlns="http://www.w3.org/2000/svg">
<path d="M17.4592 12.8281L15.7841 14.5088C15.1049 15.1905 13.9097 15.2052 13.2158 14.5088L11.5407 12.8281L5.52441 18.8639C5.74836 18.9675 5.99527 19.0293 6.25777 19.0293H22.7421C23.0046 19.0293 23.2515 18.9675 23.4754 18.8639L17.4592 12.8281Z" fill="white"/>
<path d="M22.7422 4.9668H6.25781C5.99531 4.9668 5.7484 5.02859 5.52453 5.13215L11.9533 11.5823C11.9537 11.5827 11.9543 11.5828 11.9547 11.5832C11.955 11.5835 11.9551 11.5838 11.9552 11.5842L14.0455 13.6815C14.2676 13.9035 14.7325 13.9035 14.9545 13.6815L17.0445 11.5846C17.0445 11.5846 17.045 11.5836 17.0454 11.5832C17.0454 11.5832 17.0463 11.5827 17.0468 11.5823L23.4754 5.13211C23.2515 5.02852 23.0047 4.9668 22.7422 4.9668ZM4.68695 5.95164C4.57109 6.18594 4.5 6.44602 4.5 6.72461V17.2715C4.5 17.5501 4.57102 17.8102 4.68691 18.0445L10.7136 11.9982L4.68695 5.95164ZM24.313 5.95156L18.2864 11.9982L24.313 18.0445C24.4289 17.8102 24.5 17.5502 24.5 17.2715V6.72461C24.5 6.44594 24.4289 6.18586 24.313 5.95156Z" fill="white"/>
</svg>
