<svg width="27" height="33" viewBox="0 0 27 33" fill="none" xmlns="http://www.w3.org/2000/svg">
<path d="M13.4999 4.9668C8.53809 4.9668 4.50024 9.03264 4.50024 14.0314C4.50024 21.1342 12.6539 28.4679 13.0009 28.7759C13.1381 28.8986 13.3156 28.9666 13.4997 28.9668C13.6838 28.967 13.8615 28.8994 13.9989 28.7769C14.3459 28.4679 22.4995 21.1342 22.4995 14.0314C22.4995 9.03264 18.4617 4.9668 13.4999 4.9668ZM13.4999 18.9663C10.743 18.9663 8.50009 16.7233 8.50009 13.9664C8.50009 11.2096 10.743 8.96664 13.4999 8.96664C16.2568 8.96664 18.4997 11.2096 18.4997 13.9664C18.4997 16.7233 16.2568 18.9663 13.4999 18.9663Z" fill="white"/>
</svg>
