<svg width="33" height="33" viewBox="0 0 33 33" fill="none" xmlns="http://www.w3.org/2000/svg">
<path d="M26.5743 19.7825C25.1049 19.7825 23.6621 19.5527 22.2949 19.1009C21.625 18.8724 20.8014 19.082 20.3926 19.502L17.694 21.5391C14.5644 19.8685 12.6367 17.9414 10.9889 14.8354L12.9661 12.2071C13.4798 11.6941 13.6641 10.9447 13.4433 10.2416C12.9896 8.86723 12.7591 7.42517 12.7591 5.95517C12.7591 4.89323 11.8952 4.0293 10.8333 4.0293H6.42581C5.36394 4.0293 4.5 4.89323 4.5 5.95511C4.5 18.127 14.4024 28.0293 26.5743 28.0293C27.6361 28.0293 28.5001 27.1654 28.5001 26.1035V21.7083C28.5 20.6465 27.6361 19.7825 26.5743 19.7825Z" fill="white"/>
</svg>
