<svg width="32" height="33" viewBox="0 0 32 33" fill="none" xmlns="http://www.w3.org/2000/svg">
<g clip-path="url(#clip0_352_24591)">
<path d="M16 0.998047C7.17764 0.998047 0 8.17568 0 16.998C0 25.8198 7.17764 32.998 16 32.998C24.8217 32.998 32 25.8198 32 16.998C32 8.17568 24.823 0.998047 16 0.998047ZM19.9791 17.5613H17.376V26.8393H13.5187V17.5613H11.6852V14.2822H13.5187V12.1612C13.5187 10.6421 14.2406 8.26849 17.4114 8.26849L20.2697 8.27945V11.4626H18.1951C17.8574 11.4626 17.3773 11.6314 17.3773 12.3558V14.2828H20.3161L19.9791 17.5613Z" fill="white"/>
</g>
<defs>
<clipPath id="clip0_352_24591">
<rect width="32" height="32" fill="white" transform="translate(0 0.998047)"/>
</clipPath>
</defs>
</svg>
