<svg width="32" height="33" viewBox="0 0 32 33" fill="none" xmlns="http://www.w3.org/2000/svg">
<g clip-path="url(#clip0_352_24600)">
<path d="M16 0.998047C7.16481 0.998047 0 8.16286 0 16.998C0 25.8332 7.16481 32.998 16 32.998C24.8352 32.998 32 25.8332 32 16.998C32 8.16286 24.8352 0.998047 16 0.998047ZM11.3506 25.1855H7.45388V13.4622H11.3506L11.3506 25.1855ZM9.40231 11.8613H9.37694C8.06931 11.8613 7.22363 10.9612 7.22363 9.83617C7.22363 8.6858 8.09519 7.81055 9.42825 7.81055C10.7613 7.81055 11.5816 8.6858 11.6069 9.83617C11.6069 10.9612 10.7612 11.8614 9.40231 11.8614V11.8613ZM25.4014 25.1855H21.5052V18.9138C21.5052 17.3377 20.941 16.2627 19.5311 16.2627C18.4546 16.2627 17.8136 16.9878 17.5318 17.6877C17.4288 17.9382 17.4036 18.2884 17.4036 18.6387V25.1855H13.5071C13.5071 25.1855 13.5582 14.562 13.5071 13.4622H17.4036V15.122C17.9214 14.3233 18.848 13.187 20.9154 13.187C23.4791 13.187 25.4014 14.8625 25.4014 18.4634V25.1855Z" fill="white"/>
</g>
<defs>
<clipPath id="clip0_352_24600">
<rect width="32" height="32" fill="white" transform="translate(0 0.998047)"/>
</clipPath>
</defs>
</svg>
