<svg width="32" height="33" viewBox="0 0 32 33" fill="none" xmlns="http://www.w3.org/2000/svg">
<g clip-path="url(#clip0_352_24594)">
<path d="M14.6232 15.169C13.3474 14.5374 14.0611 13.2532 15.8716 13.2532C18.3706 13.2532 17.5558 15.2784 19.1032 15.2784C20.3916 15.2784 20.8211 13.6405 19.2274 12.4069C17.499 11.0763 13.4843 11.1837 12.1158 12.9458C11.7651 13.4013 11.5726 13.9589 11.5676 14.5338C11.5627 15.1088 11.7456 15.6696 12.0885 16.1311C13.5622 17.9479 16.7748 17.5353 17.899 18.5732C18.3201 18.9669 18.3958 19.7879 17.6148 20.31C16.8337 20.8321 15.4653 20.8132 14.8337 20.5205C13.4548 19.8721 13.8864 18.2805 12.518 18.2805C10.7074 18.2805 11.0801 20.8069 13.179 21.9205C14.6527 22.6911 17.0843 22.6869 18.5622 22.0784C19.899 21.5353 20.7558 20.4932 20.758 19.1037C20.758 15.7353 16.3537 16.0279 14.6232 15.169Z" fill="white"/>
<path d="M16 0.998047C12.8355 0.998047 9.74207 1.93643 7.11088 3.69453C4.4797 5.45264 2.42894 7.95149 1.21793 10.8751C0.00693251 13.7987 -0.309921 17.0158 0.307443 20.1195C0.924806 23.2232 2.44866 26.0741 4.6863 28.3118C6.92394 30.5494 9.77487 32.0733 12.8786 32.6906C15.9823 33.308 19.1993 32.9911 22.1229 31.7801C25.0466 30.5691 27.5454 28.5184 29.3035 25.8872C31.0616 23.256 32 20.1625 32 16.998C32 12.7546 30.3143 8.68492 27.3137 5.68434C24.3131 2.68376 20.2435 0.998047 16 0.998047ZM17.5495 24.8591C11.9221 25.8802 7.08422 20.977 8.21053 15.4886C7.79543 14.7876 7.57723 13.9875 7.57895 13.1728C7.57895 9.53278 11.6505 7.38963 14.7095 9.28647C20.3432 8.33278 25.139 13.3054 23.92 18.7833C25.9263 22.7665 21.5284 26.9623 17.5495 24.8591Z" fill="white"/>
</g>
<defs>
<clipPath id="clip0_352_24594">
<rect width="32" height="32" fill="white" transform="translate(0 0.998047)"/>
</clipPath>
</defs>
</svg>
