<svg width="22" height="24" viewBox="0 0 22 24" fill="none" xmlns="http://www.w3.org/2000/svg">
<path d="M10.5271 0.953131C7.03855 0.953131 4.17744 3.81045 4.17744 7.30274C4.17744 9.43439 5.25083 11.3279 6.87981 12.4769C4.97036 13.2409 3.33312 14.5586 2.17867 16.2607C1.02423 17.9627 0.40537 19.9712 0.401697 22.0278C0.371461 23.3884 2.4313 23.3884 2.40485 22.0278C2.40192 20.551 2.79414 19.1004 3.54081 17.8263C4.28748 16.5522 5.36142 15.5011 6.65124 14.782C7.94107 14.0628 9.3998 13.7019 10.8761 13.7365C12.3525 13.7711 13.7927 14.2001 15.0474 14.979C16.185 15.6782 17.2319 13.9698 16.0943 13.2706C15.5157 12.9229 14.9042 12.633 14.2688 12.4051C15.3492 11.6169 16.1525 10.507 16.5635 9.2343C16.9745 7.96163 16.9721 6.59153 16.5568 5.32028C16.1414 4.04902 15.3344 2.94185 14.2512 2.15736C13.1681 1.37288 11.8644 0.951338 10.5271 0.953131ZM10.5271 2.95628C12.9384 2.95628 14.8735 4.8914 14.8735 7.30274C14.8735 9.71408 12.9346 11.6416 10.5233 11.6416C8.11571 11.6416 6.17682 9.71408 6.17682 7.30274C6.17682 4.8914 8.11949 2.95628 10.5271 2.95628ZM16.6612 19.9679V21.9711C16.6915 23.2712 18.6341 23.2712 18.6644 21.9711V19.9679H20.6675C21.9979 19.9679 21.9979 17.9648 20.6675 17.9648H18.6644V15.9654C18.6644 15.6998 18.5588 15.445 18.371 15.2572C18.1832 15.0694 17.9284 14.9638 17.6628 14.9638C17.3972 14.9638 17.1424 15.0694 16.9546 15.2572C16.7667 15.445 16.6612 15.6998 16.6612 15.9654V17.9686H14.6165C13.2332 18.029 13.3315 20.0322 14.6619 19.9717L16.6612 19.9679Z" fill="#45E8E1"/>
</svg>
