<svg width="23" height="16" viewBox="0 0 23 16" fill="none" xmlns="http://www.w3.org/2000/svg">
<path d="M5.62402 16C4.10402 16 2.80736 15.4767 1.73402 14.43C0.66069 13.3767 0.124023 12.0933 0.124023 10.58C0.124023 9.28 0.514024 8.12 1.29402 7.1C2.08069 6.08 3.10736 5.43 4.37402 5.15C4.79402 3.61667 5.62736 2.37667 6.87402 1.43C8.12736 0.476667 9.54402 0 11.124 0C13.0774 0 14.7307 0.68 16.084 2.04C17.444 3.39333 18.124 5.04667 18.124 7C19.2774 7.13333 20.2307 7.63333 20.984 8.5C21.744 9.35333 22.124 10.3533 22.124 11.5C22.124 12.7533 21.6874 13.8167 20.814 14.69C19.9407 15.5633 18.8774 16 17.624 16H12.124C11.5774 16 11.1074 15.8033 10.714 15.41C10.3207 15.0233 10.124 14.5533 10.124 14V8.85L8.52402 10.4L7.12402 9L11.124 5L15.124 9L13.724 10.4L12.124 8.85V14H17.624C18.324 14 18.914 13.7567 19.394 13.27C19.8807 12.79 20.124 12.2 20.124 11.5C20.124 10.8 19.8807 10.21 19.394 9.73C18.914 9.24333 18.324 9 17.624 9H16.124V7C16.124 5.62 15.6374 4.44 14.664 3.46C13.6907 2.48667 12.5107 2 11.124 2C9.74402 2 8.56402 2.48667 7.58402 3.46C6.61069 4.44 6.12402 5.62 6.12402 7H5.62402C4.65736 7 3.83402 7.34333 3.15402 8.03C2.46736 8.71 2.12402 9.53333 2.12402 10.5C2.12402 11.4667 2.46736 12.3 3.15402 13C3.83402 13.6667 4.65736 14 5.62402 14H8.12402V16" fill="#F4F6F8"/>
</svg>
