<svg width="21" height="20" viewBox="0 0 21 20" fill="none" xmlns="http://www.w3.org/2000/svg">
<path d="M10.1245 20C8.75785 20 7.46618 19.7373 6.24951 19.212C5.03285 18.6867 3.97018 17.97 3.06151 17.062C2.15351 16.154 1.43685 15.0917 0.911513 13.875C0.38618 12.6583 0.123846 11.3667 0.124513 10C0.124513 8.61667 0.38718 7.32067 0.912513 6.112C1.43785 4.90333 2.15451 3.84533 3.06251 2.938C3.97051 2.02933 5.03251 1.31267 6.24851 0.788C7.46451 0.263333 8.75651 0.000666667 10.1245 0C11.5078 0 12.8038 0.262667 14.0125 0.788C15.2212 1.31333 16.2792 2.03 17.1865 2.938C18.0952 3.846 18.8118 4.90433 19.3365 6.113C19.8612 7.32167 20.1238 8.61733 20.1245 10V11.45C20.1245 12.4333 19.7872 13.271 19.1125 13.963C18.4378 14.655 17.6085 15.0007 16.6245 15C16.0245 15 15.4662 14.8667 14.9495 14.6C14.4328 14.3333 14.0078 13.9833 13.6745 13.55C13.2245 14 12.6952 14.3543 12.0865 14.613C11.4778 14.8717 10.8238 15.0007 10.1245 15C8.74118 15 7.56185 14.5123 6.58651 13.537C5.61118 12.5617 5.12385 11.3827 5.12451 10C5.12451 8.61667 5.61218 7.43733 6.58751 6.462C7.56285 5.48667 8.74185 4.99933 10.1245 5C11.5078 5 12.6872 5.48767 13.6625 6.463C14.6378 7.43833 15.1252 8.61733 15.1245 10V11.45C15.1245 11.9333 15.2745 12.3123 15.5745 12.587C15.8745 12.8617 16.2245 12.9993 16.6245 13C17.0245 13 17.3745 12.8623 17.6745 12.587C17.9745 12.3117 18.1245 11.9327 18.1245 11.45V10C18.1245 7.81667 17.3368 5.93733 15.7615 4.362C14.1862 2.78667 12.3072 1.99933 10.1245 2C7.94118 2 6.06185 2.78767 4.48651 4.363C2.91118 5.93833 2.12385 7.81733 2.12451 10C2.12451 12.1833 2.91218 14.0627 4.48751 15.638C6.06285 17.2133 7.94185 18.0007 10.1245 18H15.1245V20H10.1245ZM10.1245 13C10.9578 13 11.6662 12.7083 12.2495 12.125C12.8328 11.5417 13.1245 10.8333 13.1245 10C13.1245 9.16667 12.8328 8.45833 12.2495 7.875C11.6662 7.29167 10.9578 7 10.1245 7C9.29118 7 8.58285 7.29167 7.99951 7.875C7.41618 8.45833 7.12451 9.16667 7.12451 10C7.12451 10.8333 7.41618 11.5417 7.99951 12.125C8.58285 12.7083 9.29118 13 10.1245 13Z" fill="#F4F6F8"/>
</svg>
