<svg width="25" height="24" viewBox="0 0 25 24" fill="none" xmlns="http://www.w3.org/2000/svg">
<g clip-path="url(#clip0_352_26119)">
<path d="M6.56716 12.534H17.5005V14.5873H18.5672V11.4673H12.5672V9.33398H11.5005V11.4673H5.50049V14.5873H6.56716V12.534Z" fill="#45E8E1"/>
<path d="M9.36719 15.334H2.70052C2.3469 15.334 2.00776 15.4745 1.75771 15.7245C1.50766 15.9746 1.36719 16.3137 1.36719 16.6673V20.6673C1.36719 21.0209 1.50766 21.3601 1.75771 21.6101C2.00776 21.8602 2.3469 22.0007 2.70052 22.0007H9.36719C9.72081 22.0007 10.0599 21.8602 10.31 21.6101C10.56 21.3601 10.7005 21.0209 10.7005 20.6673V16.6673C10.7005 16.3137 10.56 15.9746 10.31 15.7245C10.0599 15.4745 9.72081 15.334 9.36719 15.334ZM2.70052 20.6673V16.6673H9.36719V20.6673H2.70052Z" fill="#45E8E1"/>
<path d="M21.3672 15.334H14.7005C14.3469 15.334 14.0078 15.4745 13.7577 15.7245C13.5077 15.9746 13.3672 16.3137 13.3672 16.6673V20.6673C13.3672 21.0209 13.5077 21.3601 13.7577 21.6101C14.0078 21.8602 14.3469 22.0007 14.7005 22.0007H21.3672C21.7208 22.0007 22.0599 21.8602 22.31 21.6101C22.56 21.3601 22.7005 21.0209 22.7005 20.6673V16.6673C22.7005 16.3137 22.56 15.9746 22.31 15.7245C22.0599 15.4745 21.7208 15.334 21.3672 15.334ZM14.7005 20.6673V16.6673H21.3672V20.6673H14.7005Z" fill="#45E8E1"/>
<path d="M8.70052 8.66667H15.3672C15.7208 8.66667 16.0599 8.52619 16.31 8.27614C16.56 8.02609 16.7005 7.68695 16.7005 7.33333V3.33333C16.7005 2.97971 16.56 2.64057 16.31 2.39052C16.0599 2.14048 15.7208 2 15.3672 2H8.70052C8.3469 2 8.00776 2.14048 7.75771 2.39052C7.50766 2.64057 7.36719 2.97971 7.36719 3.33333V7.33333C7.36719 7.68695 7.50766 8.02609 7.75771 8.27614C8.00776 8.52619 8.3469 8.66667 8.70052 8.66667ZM8.70052 3.33333H15.3672V7.33333H8.70052V3.33333Z" fill="#45E8E1"/>
</g>
<defs>
<clipPath id="clip0_352_26119">
<rect width="24" height="24" fill="white" transform="translate(0.0336914)"/>
</clipPath>
</defs>
</svg>
