<svg width="25" height="23" viewBox="0 0 25 23" fill="none" xmlns="http://www.w3.org/2000/svg">
<path d="M5.92164 20.9934C4.73851 19.6646 3.78289 18.3646 2.85976 17.1059C2.01636 15.961 1.28507 14.7377 0.676013 13.4527C0.294763 12.6727 0.126013 11.884 0.951638 11.3759C3.31851 9.92149 3.80351 11.3102 5.08914 12.9215C5.85164 13.8765 6.97664 15.4509 7.68101 16.4459C8.35414 17.3959 9.17476 15.6815 9.50164 15.1971C10.666 13.4784 13.691 9.26836 14.9416 7.71274C16.1285 6.23524 19.9591 2.09711 20.6729 1.43899C21.281 0.878364 22.5648 -0.350386 23.4279 0.327739C24.3341 1.04024 24.7779 2.39461 24.1404 3.27524C23.0298 4.80836 21.286 6.26649 20.0791 7.72649C17.6366 10.6815 15.3241 13.8665 13.1041 17.0384C12.3498 18.1159 11.291 19.9209 10.6335 21.0896C9.40351 23.2765 8.32351 23.6921 5.92101 20.9934H5.92164Z" fill="#45E8E1"/>
</svg>
