<svg width="68" height="68" viewBox="0 0 68 68" fill="none" xmlns="http://www.w3.org/2000/svg">
<path d="M21.1512 40.7645H16.4865C16.4226 40.7645 16.3593 40.7771 16.3003 40.8015C16.2413 40.8259 16.1876 40.8618 16.1425 40.907C16.0973 40.9521 16.0615 41.0058 16.037 41.0648C16.0126 41.1238 16 41.1871 16 41.251V51.5134C16 51.5773 16.0126 51.6405 16.037 51.6996C16.0615 51.7586 16.0973 51.8122 16.1425 51.8574C16.1876 51.9026 16.2413 51.9384 16.3003 51.9628C16.3593 51.9873 16.4226 51.9999 16.4865 51.9999H21.1512C21.2151 51.9999 21.2783 51.9873 21.3373 51.9628C21.3964 51.9384 21.45 51.9026 21.4952 51.8574C21.5404 51.8122 21.5762 51.7586 21.6006 51.6996C21.6251 51.6405 21.6377 51.5773 21.6377 51.5134V41.2509C21.6377 41.187 21.6251 41.1238 21.6007 41.0647C21.5762 41.0057 21.5404 40.9521 21.4952 40.9069C21.4501 40.8617 21.3964 40.8259 21.3374 40.8015C21.2784 40.777 21.2151 40.7645 21.1512 40.7645ZM20.6647 51.0269H16.973V41.7374H20.6647L20.6647 51.0269ZM31.2719 34.4669H26.6072C26.5433 34.4669 26.48 34.4795 26.421 34.504C26.362 34.5284 26.3084 34.5642 26.2632 34.6094C26.218 34.6546 26.1822 34.7082 26.1577 34.7673C26.1333 34.8263 26.1207 34.8896 26.1207 34.9534V51.5134C26.1207 51.5773 26.1333 51.6406 26.1577 51.6996C26.1822 51.7587 26.218 51.8123 26.2632 51.8575C26.3084 51.9026 26.362 51.9385 26.421 51.9629C26.48 51.9874 26.5433 51.9999 26.6072 51.9999H31.2719C31.3358 51.9999 31.399 51.9874 31.4581 51.9629C31.5171 51.9385 31.5707 51.9026 31.6159 51.8575C31.6611 51.8123 31.6969 51.7587 31.7214 51.6996C31.7458 51.6406 31.7584 51.5773 31.7584 51.5134V34.9534C31.7584 34.8895 31.7458 34.8262 31.7214 34.7672C31.6969 34.7082 31.6611 34.6545 31.6159 34.6094C31.5707 34.5642 31.5171 34.5284 31.4581 34.5039C31.399 34.4795 31.3358 34.4669 31.2719 34.4669ZM30.7854 51.0269H27.0937V35.4399H30.7854V51.0269ZM41.3926 30.1908H36.7279C36.664 30.1908 36.6008 30.2034 36.5417 30.2278C36.4827 30.2523 36.4291 30.2881 36.3839 30.3333C36.3387 30.3785 36.3029 30.4321 36.2784 30.4911C36.254 30.5502 36.2414 30.6134 36.2414 30.6773V51.5134C36.2414 51.5773 36.254 51.6405 36.2784 51.6996C36.3029 51.7586 36.3387 51.8122 36.3839 51.8574C36.4291 51.9026 36.4827 51.9384 36.5417 51.9628C36.6008 51.9873 36.664 51.9999 36.7279 51.9999H41.3926C41.4565 51.9999 41.5197 51.9873 41.5788 51.9628C41.6378 51.9384 41.6914 51.9026 41.7366 51.8574C41.7818 51.8122 41.8176 51.7586 41.8421 51.6996C41.8665 51.6405 41.8791 51.5773 41.8791 51.5134V30.6773C41.8791 30.6134 41.8665 30.5502 41.8421 30.4911C41.8176 30.4321 41.7818 30.3785 41.7366 30.3333C41.6914 30.2881 41.6378 30.2523 41.5788 30.2278C41.5197 30.2034 41.4565 30.1908 41.3926 30.1908ZM40.9061 51.0269H37.2144V31.1638H40.9061V51.0269ZM51.5134 24.9041H46.8488C46.7849 24.9041 46.7216 24.9167 46.6626 24.9411C46.6036 24.9656 46.5499 25.0014 46.5047 25.0466C46.4596 25.0917 46.4237 25.1454 46.3993 25.2044C46.3748 25.2634 46.3623 25.3267 46.3623 25.3906V51.5134C46.3623 51.5773 46.3748 51.6405 46.3993 51.6996C46.4237 51.7586 46.4596 51.8122 46.5047 51.8574C46.5499 51.9026 46.6036 51.9384 46.6626 51.9628C46.7216 51.9873 46.7849 51.9999 46.8488 51.9999H51.5134C51.5773 51.9999 51.6406 51.9873 51.6996 51.9628C51.7586 51.9384 51.8123 51.9026 51.8575 51.8574C51.9026 51.8122 51.9385 51.7586 51.9629 51.6996C51.9874 51.6405 51.9999 51.5773 51.9999 51.5134V25.3906C51.9999 25.3267 51.9874 25.2634 51.9629 25.2044C51.9385 25.1454 51.9026 25.0917 51.8575 25.0466C51.8123 25.0014 51.7586 24.9656 51.6996 24.9411C51.6406 24.9167 51.5773 24.9041 51.5134 24.9041ZM51.0269 51.0269H47.3353V25.8771H51.0269V51.0269ZM16.0271 35.8348C15.9847 35.713 15.9925 35.5793 16.0486 35.4631C16.1048 35.347 16.2048 35.2579 16.3266 35.2154C28.2688 31.0567 38.7237 24.9427 47.4291 17.0462L44.9539 17.1804C44.6876 17.1948 44.4563 16.9893 44.442 16.721C44.4385 16.6572 44.4476 16.5934 44.4689 16.5331C44.4901 16.4728 44.523 16.4174 44.5656 16.3698C44.6083 16.3223 44.6599 16.2836 44.7175 16.256C44.7751 16.2284 44.8376 16.2124 44.9014 16.209L48.7388 16.0007C48.8107 15.9968 48.8826 16.009 48.9492 16.0362C49.0159 16.0635 49.0757 16.1052 49.1242 16.1584C49.1728 16.2116 49.209 16.2749 49.2301 16.3437C49.2513 16.4126 49.2568 16.4853 49.2465 16.5565L48.6929 20.3594C48.6742 20.487 48.6056 20.6021 48.5022 20.6792C48.3987 20.7563 48.2689 20.7892 48.1413 20.7706C48.0136 20.752 47.8986 20.6834 47.8214 20.58C47.7443 20.4765 47.7114 20.3467 47.73 20.219L48.0877 17.7622C39.2841 25.7493 28.7152 31.9314 16.6465 36.1343C16.595 36.1522 16.541 36.1614 16.4865 36.1615C16.3855 36.1614 16.287 36.13 16.2047 36.0714C16.1224 36.0129 16.0603 35.9302 16.0271 35.8348Z" fill="white"/>
<rect x="0.5" y="0.5" width="66.9999" height="66.9999" rx="33.5" stroke="white"/>
</svg>
