<svg width="17" height="16" viewBox="0 0 17 16" fill="none" xmlns="http://www.w3.org/2000/svg">
<path d="M3.5249 0C3.80104 0 4.0249 0.223858 4.0249 0.5V1H12.0249V0.5C12.0249 0.223858 12.2488 0 12.5249 0C12.801 0 13.0249 0.223858 13.0249 0.5V1H14.0249C15.1295 1 16.0249 1.89543 16.0249 3V14C16.0249 15.1046 15.1295 16 14.0249 16H2.0249C0.920334 16 0.0249023 15.1046 0.0249023 14V3C0.0249023 1.89543 0.920333 1 2.0249 1H3.0249V0.5C3.0249 0.223858 3.24876 0 3.5249 0ZM1.0249 4V14C1.0249 14.5523 1.47262 15 2.0249 15H14.0249C14.5772 15 15.0249 14.5523 15.0249 14V4H1.0249Z" fill="#D0D5DD"/>
</svg>
