<svg width="41" height="40" viewBox="0 0 41 40" fill="none" xmlns="http://www.w3.org/2000/svg">
<path d="M20.0348 0C25.5574 0 30.557 2.23967 34.1756 5.85806C37.7965 9.47639 40.0337 14.4789 40.0337 20.0011C40.0337 25.5233 37.7965 30.5233 34.1756 34.1419C30.5573 37.7628 25.5577 40 20.0348 40C14.5118 40 9.50965 37.7628 5.89175 34.1419C2.27343 30.5236 0.0336914 25.524 0.0336914 20.0011C0.0336914 14.4782 2.27336 9.47596 5.89175 5.85806C9.51015 2.24017 14.5126 0 20.0348 0ZM32.5515 7.51758C29.234 4.20004 25.1122 2.30919 20.0514 2.30919C14.9874 2.30919 10.8692 4.19997 7.55127 7.51758C4.23373 10.8351 2.34288 14.9541 2.34288 20.0177C2.34288 25.0791 4.23366 29.2007 7.55127 32.5178C10.8689 35.835 14.9878 37.7262 20.0514 37.7262C25.1128 37.7262 29.2344 35.8355 32.5515 32.5178C35.8691 29.2003 37.7599 25.0618 37.7599 20.0011C37.7599 14.9371 35.8691 10.8355 32.5515 7.51758ZM21.5169 8.95631C21.7488 8.55926 22.2569 8.42366 22.6564 8.65301C23.0535 8.88488 23.1891 9.39295 22.9572 9.79003L20.0514 14.8093L17.6737 18.9437H23.8353C24.2965 18.9437 24.669 19.3162 24.669 19.7774C24.669 19.9574 24.6124 20.1228 24.5161 20.2585L18.2906 31.0421C18.0638 31.4392 17.5557 31.5748 17.1583 31.3479C16.7588 31.1186 16.6232 30.6105 16.85 30.2134L22.395 20.6112H16.2311C16.0905 20.6087 15.9474 20.5741 15.8143 20.4976C15.4172 20.2683 15.2816 19.7577 15.511 19.3606L21.5169 8.95631Z" fill="#45E8E1"/>
</svg>
