<svg width="41" height="40" viewBox="0 0 41 40" fill="none" xmlns="http://www.w3.org/2000/svg">
<path d="M35.461 24.3158C35.8271 24.682 35.8271 25.2755 35.461 25.6416L30.2032 30.8995C30.0274 31.0752 29.7889 31.174 29.5403 31.174C29.2917 31.174 29.0533 31.0752 28.8774 30.8995L25.6815 27.7035C25.3154 27.3373 25.3154 26.7438 25.6815 26.3777C26.0477 26.0116 26.6412 26.0116 27.0073 26.3777L29.5403 28.9107L34.1352 24.3158C34.5013 23.9498 35.0949 23.9497 35.461 24.3158ZM40.0336 27.6076C40.0336 32.8252 35.7888 37.0699 30.5712 37.0699C29.6381 37.0705 28.71 36.9326 27.8173 36.6607C23.8605 38.6066 19.8524 39.5889 15.8791 39.5889C15.3137 39.5889 14.7496 39.5691 14.1859 39.5293C9.64633 39.2088 5.0607 37.5872 0.556404 34.7095C0.436632 34.6329 0.335829 34.5302 0.261618 34.409C0.187407 34.2877 0.141731 34.1512 0.128044 34.0098C-0.25305 30.0745 0.546482 26.2352 2.37953 23.1991C4.12195 20.313 6.7164 18.2142 9.93976 17.0635C8.6775 15.5634 7.78953 13.8045 7.35258 11.9164C6.85125 9.74992 6.99195 7.52383 7.74867 5.6482C9.06969 2.3743 12.0425 0.465156 15.905 0.410312L15.9183 0.410156L15.9316 0.410312C19.7941 0.465234 22.7669 2.37438 24.0878 5.64828C24.8446 7.52383 24.9852 9.74992 24.4839 11.9164C24.047 13.8047 23.1588 15.5637 21.8963 17.064C23.4159 17.6059 24.7966 18.3589 26.02 19.3138C27.3712 18.5695 28.9224 18.1452 30.5711 18.1452C35.7888 18.1452 40.0336 22.39 40.0336 27.6076ZM12.0379 16.5788C13.3466 17.8768 14.6522 18.5349 15.9183 18.5349C17.1844 18.5349 18.4899 17.8768 19.7986 16.5788C22.6067 13.794 23.6555 9.58766 22.3491 6.34969C21.3108 3.77641 19.0273 2.33328 15.9183 2.28516C12.8091 2.33328 10.5257 3.77641 9.48742 6.34969C8.18101 9.58773 9.22976 13.7941 12.0379 16.5788ZM25.5666 35.6345C22.8918 33.9608 21.1088 30.9887 21.1088 27.6076C21.1088 24.7471 22.3848 22.1791 24.3973 20.4426C23.2206 19.6116 21.8868 18.9795 20.4151 18.5555C18.958 19.7865 17.4487 20.41 15.9183 20.41C14.3878 20.41 12.8786 19.7865 11.4215 18.5556C5.09101 20.3843 1.4225 26.122 1.95554 33.3752C9.88703 38.3092 17.6307 39.0527 25.5666 35.6345ZM38.1586 27.6076C38.1586 23.4239 34.7549 20.0202 30.5712 20.0202C26.3876 20.0202 22.9838 23.4238 22.9838 27.6076C22.9838 31.7913 26.3875 35.1949 30.5712 35.1949C34.755 35.1949 38.1586 31.7912 38.1586 27.6076Z" fill="#45E8E1"/>
</svg>
