<svg width="36" height="40" viewBox="0 0 36 40" fill="none" xmlns="http://www.w3.org/2000/svg">
<path d="M18.0337 0C12.2181 0 7.48682 4.73133 7.48682 10.5469C7.48682 16.3624 12.2181 21.0938 18.0337 21.0938C23.8492 21.0938 28.5806 16.3624 28.5806 10.5469C28.5806 4.73133 23.8492 0 18.0337 0ZM18.0337 18.75C13.5105 18.75 9.83057 15.0701 9.83057 10.5469C9.83057 6.02367 13.5105 2.34375 18.0337 2.34375C22.5569 2.34375 26.2368 6.02367 26.2368 10.5469C26.2368 15.0701 22.5569 18.75 18.0337 18.75ZM31.156 27.984C28.2685 25.0521 24.4406 23.4375 20.3774 23.4375H15.6899C11.6268 23.4375 7.79885 25.0521 4.91135 27.984C2.03799 30.9015 0.455566 34.7526 0.455566 38.8281C0.455566 39.4753 0.980254 40 1.62744 40H34.4399C35.0871 40 35.6118 39.4753 35.6118 38.8281C35.6118 34.7526 34.0294 30.9015 31.156 27.984ZM2.85088 37.6562C3.43799 31.0089 8.97205 25.7812 15.6899 25.7812H20.3774C27.0953 25.7812 32.6294 31.0089 33.2165 37.6562H2.85088Z" fill="#45E8E1"/>
</svg>
