<svg width="21" height="20" viewBox="0 0 21 20" fill="none" xmlns="http://www.w3.org/2000/svg">
<g clip-path="url(#clip0_352_24307)">
<path fill-rule="evenodd" clip-rule="evenodd" d="M16.5708 18H3.44647C2.74008 18 2.21845 17.303 2.48488 16.662C3.72107 13.698 6.62523 12 10.0082 12C13.3921 12 16.2963 13.698 17.5324 16.662C17.7989 17.303 17.2772 18 16.5708 18ZM5.92497 5.99998C5.92497 3.79398 7.7573 1.99998 10.0082 1.99998C12.26 1.99998 14.0913 3.79398 14.0913 5.99998C14.0913 8.20599 12.26 9.99998 10.0082 9.99998C7.7573 9.99998 5.92497 8.20599 5.92497 5.99998ZM19.964 17.636C19.2219 14.277 16.9006 11.798 13.8453 10.673C15.4643 9.39596 16.4085 7.33093 16.0615 5.06993C15.6593 2.44693 13.4319 0.347977 10.7431 0.0419769C7.03151 -0.381023 3.88337 2.44898 3.88337 5.99998C3.88337 7.88998 4.77759 9.57396 6.172 10.673C3.11574 11.798 0.795464 14.277 0.0523248 17.636C-0.217165 18.857 0.787299 20 2.06227 20H17.954C19.23 20 20.2345 18.857 19.964 17.636Z" fill="white"/>
</g>
<defs>
<clipPath id="clip0_352_24307">
<rect width="20" height="20" fill="white" transform="translate(0.00830078)"/>
</clipPath>
</defs>
</svg>
